<svg width="82" height="79" viewBox="0 0 82 79" fill="none" xmlns="http://www.w3.org/2000/svg">
<path d="M41.1756 78.3306C36.8423 78.3306 32.5089 78.3306 28.1756 78.3306C16.1439 78.3306 9.1756 68.3211 13.2804 56.9719C14.3693 53.9592 16.1534 51.3401 17.801 48.6449C18.2296 47.9401 18.8708 47.5655 19.6677 48.102C20.4454 48.6227 20.3566 49.3306 19.9312 50.0449C18.2581 52.8481 16.3661 55.5211 15.42 58.7179C12.6137 68.2036 18.2359 75.7846 28.1248 75.7846C37.1629 75.7846 46.1978 75.8131 55.2359 75.775C61.7026 75.7496 66.9089 71.3115 67.7693 65.029C68.2359 61.6227 67.2645 58.4227 65.7121 55.4258C64.7438 53.556 63.5756 51.7877 62.5026 49.9687C62.0613 49.2195 62.1153 48.5274 62.8994 48.0576C63.6518 47.6068 64.2486 47.9877 64.6454 48.6195C67.0708 52.4576 69.4804 56.2703 70.1788 60.9242C71.5661 70.1687 64.8867 78.1623 55.4454 78.3147C50.6867 78.3941 45.9312 78.3306 41.1756 78.3306Z" fill="#7733AA"/>
<path d="M28.5471 55.4038C28.5471 54.1372 28.6169 52.8642 28.5248 51.6007C28.4487 50.5753 28.8423 50.3531 29.7852 50.3911C31.5248 50.461 33.2709 50.3657 35.0137 50.4292C35.8963 50.461 36.2201 50.2197 36.182 49.2927C36.1122 47.5531 36.2296 45.8038 36.1375 44.0642C36.0804 42.9785 36.4804 42.7499 37.4804 42.7753C40.0137 42.8388 42.5534 42.8388 45.0868 42.7753C46.0391 42.7531 46.3883 42.9816 46.3407 43.9943C46.255 45.734 46.382 47.4832 46.2931 49.2229C46.2423 50.2483 46.6169 50.4673 47.5534 50.4324C49.3471 50.3658 51.1439 50.4419 52.9407 50.4007C53.6804 50.3816 53.9566 50.5975 53.9439 51.3753C53.9026 54.1213 53.9026 56.8705 53.9439 59.6165C53.9566 60.4038 53.6582 60.5975 52.9312 60.5816C51.0836 60.5404 49.2328 60.6038 47.3852 60.5531C46.5756 60.5308 46.2677 60.7499 46.2963 61.607C46.3566 63.4007 46.2518 65.2007 46.3375 66.9943C46.3883 68.0197 46.0106 68.2261 45.0741 68.2038C42.4868 68.1467 39.8963 68.1499 37.309 68.2007C36.4296 68.2197 36.1026 67.9911 36.1407 67.0642C36.2106 65.3245 36.0931 63.5753 36.1852 61.8356C36.2423 60.7531 35.8423 60.5023 34.8423 60.5467C33.1026 60.6197 31.3566 60.5308 29.6137 60.5816C28.801 60.607 28.4868 60.3848 28.528 59.5245C28.5947 58.1531 28.5471 56.7753 28.5471 55.4038ZM38.6994 61.7277C38.6994 65.8451 38.6994 65.8134 42.7598 65.6642C43.636 65.6324 43.8106 65.3277 43.7915 64.5499C43.7471 62.7023 43.8074 60.8515 43.7629 59.0038C43.7439 58.2515 43.9852 57.9911 44.7471 58.0102C46.5947 58.0546 48.4455 57.9943 50.2931 58.0388C51.0614 58.0578 51.3852 57.9023 51.4169 57.0165C51.5725 52.9467 51.6042 52.9499 47.4899 52.9499C43.7788 52.9499 43.7788 52.9499 43.7788 49.1658C43.7788 45.1816 43.7788 45.2197 39.7979 45.3086C38.855 45.3308 38.6614 45.6546 38.6868 46.5054C38.7407 48.2991 38.6645 50.0959 38.7185 51.8927C38.7439 52.7213 38.4931 52.9943 37.6518 52.9689C35.8042 52.9118 33.9566 52.9753 32.1058 52.9404C31.4042 52.9277 31.109 53.0769 31.0645 53.88C30.8233 58.0292 30.7947 58.0292 34.9122 58.0292C34.9661 58.0292 35.0169 58.0292 35.0709 58.0292C38.6995 58.0229 38.6994 58.0229 38.6994 61.7277Z" fill="#7733AA"/>
<path d="M3.03932 32.085C3.05202 34.2437 3.54726 36.2723 4.70917 38.1072C5.92821 40.031 7.54726 41.3707 9.92821 41.5136C10.8171 41.5676 11.3822 42.0152 11.325 42.8787C11.2679 43.7453 10.6266 44.1104 9.75361 44.066C7.40758 43.9485 5.50282 42.9009 3.90599 41.2533C-0.649564 36.5549 -0.690836 27.4406 3.8044 22.666C8.39488 17.7898 15.4012 19.2533 18.325 25.7422C18.76 26.7104 19.7917 28.0406 18.1695 28.7263C16.6266 29.3802 16.5314 27.7326 16.0266 26.8374C15.6393 26.1485 15.2679 25.4374 14.7854 24.8183C12.2806 21.5961 8.16948 21.4945 5.52186 24.5898C3.68059 26.7422 3.0171 29.3072 3.03932 32.085Z" fill="#7733AA"/>
<path d="M19.6465 12.6827C19.71 9.68265 20.5481 6.72392 22.6243 4.2255C26.4052 -0.330051 32.5354 -0.123699 36.0528 4.63503C36.8116 5.66043 37.3798 6.78423 37.8465 7.97153C38.1544 8.75566 37.9735 9.36836 37.256 9.70169C36.4433 10.0795 35.8243 9.73979 35.4909 8.91122C35.0751 7.87948 34.5925 6.88582 33.8973 6.00645C31.2719 2.67312 27.2592 2.6255 24.5671 5.89852C21.5449 9.57471 21.4052 15.8509 24.2655 19.6731C25.456 21.2636 26.9608 22.3461 29.0116 22.4826C29.8751 22.5398 30.4814 22.9144 30.4274 23.8223C30.364 24.8319 29.6211 25.0922 28.7259 25.0192C25.9576 24.7906 23.8465 23.4001 22.2401 21.2223C20.4211 18.7557 19.6592 15.9334 19.6465 12.6827Z" fill="#7733AA"/>
<path d="M81.7954 32.0303C81.589 36.0461 80.4589 39.8461 76.8938 42.516C75.5954 43.4874 74.1192 44.0207 72.4843 44.062C71.7001 44.0811 71.1224 43.7509 71.043 42.9192C70.9636 42.0906 71.443 41.6144 72.2367 41.535C76.3001 41.1319 77.9827 38.2874 78.8271 34.8366C79.6589 31.4366 79.2239 28.1128 77.1509 25.1636C74.4906 21.3795 70.0747 21.3763 67.4144 25.1414C66.9605 25.7826 66.624 26.5065 66.2398 27.1985C65.862 27.8811 65.3287 28.2652 64.5541 27.916C63.8144 27.5826 63.5859 26.9731 63.9192 26.2112C65.3541 22.9509 67.4874 20.4652 71.2208 19.8906C74.7827 19.3414 77.3224 21.0747 79.3128 23.7795C81.0652 26.1572 81.6652 28.935 81.7954 32.0303Z" fill="#7733AA"/>
<path d="M62.8321 13.3617C62.6861 16.9871 61.5464 20.511 58.4003 23.1332C56.9845 24.311 55.3368 24.984 53.4702 25.0221C52.6765 25.0379 52.1273 24.6697 52.0416 23.857C51.9654 23.1141 52.413 22.6919 53.1083 22.5078C57.6543 21.2983 59.5527 19.1998 60.1686 14.4379C60.5686 11.3427 59.921 8.43159 57.94 5.94588C55.1432 2.43794 50.8956 2.67604 48.2543 6.46016C47.8352 7.06016 47.5654 7.76492 47.1622 8.37762C46.7908 8.93952 46.2638 9.33001 45.5559 8.95223C44.867 8.58397 44.594 8.01889 44.9369 7.23477C46.3813 3.94588 48.6384 1.52683 52.3273 1.01254C55.7495 0.536352 58.3495 2.15223 60.3178 4.84429C62.0892 7.27604 62.8003 10.0538 62.8321 13.3617Z" fill="#7733AA"/>
<path d="M46.3159 12.7457C46.2366 13.4282 45.9 13.933 45.1604 13.9838C44.3477 14.0409 43.8302 13.5838 43.7985 12.7933C43.7635 11.9774 44.3064 11.5203 45.0905 11.5235C45.808 11.5266 46.2112 12.0028 46.3159 12.7457Z" fill="#7733AA"/>
<path d="M45.8585 19.0158C45.1347 18.911 44.6744 18.5142 44.668 17.7809C44.6617 16.984 45.1125 16.4697 45.9284 16.4888C46.6522 16.5047 47.1093 16.9809 47.1315 17.7015C47.1569 18.5205 46.6395 18.9205 45.8585 19.0158Z" fill="#7733AA"/>
<path d="M66.1824 36.7809C66.0395 37.5587 65.5982 38.0381 64.7887 37.9714C64.0522 37.9079 63.6617 37.4127 63.6998 36.6794C63.7443 35.8603 64.2332 35.4349 65.0554 35.4984C65.8109 35.5587 66.122 36.0698 66.1824 36.7809Z" fill="#7733AA"/>
<path d="M68.9228 40.9825C68.8339 41.6904 68.4942 42.1666 67.7196 42.1666C66.8815 42.1666 66.4308 41.665 66.4498 40.8809C66.4688 40.0746 67.0244 39.6301 67.8149 39.6841C68.5482 39.7317 68.8974 40.246 68.9228 40.9825Z" fill="#7733AA"/>
<path d="M37.5158 18.3281C37.5031 19.1345 37.1508 19.6043 36.4047 19.6614C35.5889 19.7218 35.0778 19.2773 35.0555 18.4805C35.0333 17.7821 35.4523 17.2424 36.173 17.1853C36.9666 17.1218 37.4143 17.6075 37.5158 18.3281Z" fill="#7733AA"/>
<path d="M48.6713 20.6406C49.43 20.7708 49.9412 21.1676 49.9031 21.9898C49.8713 22.7136 49.4459 23.1676 48.6967 23.1613C47.9666 23.1549 47.4745 22.7073 47.4364 22.0121C47.392 21.2343 47.8777 20.7613 48.6713 20.6406Z" fill="#7733AA"/>
<path d="M45.8873 33.0583C45.1507 32.9631 44.665 32.5694 44.6968 31.7345C44.7285 30.979 45.2142 30.5567 45.9222 30.579C46.6936 30.6044 47.2333 31.0869 47.1825 31.8901C47.1412 32.5821 46.6841 33.0234 45.8873 33.0583Z" fill="#7733AA"/>
<path d="M37.4641 14.8044C36.7688 14.7472 36.2546 14.3917 36.1847 13.6774C36.1085 12.8901 36.5212 12.3695 37.3498 12.3091C38.1054 12.2552 38.5593 12.6964 38.6482 13.3917C38.753 14.2076 38.2355 14.6266 37.4641 14.8044Z" fill="#7733AA"/>
<path d="M42.1689 31.2465C42.0895 32.0687 41.6419 32.564 40.8546 32.5418C40.1594 32.5227 39.6673 32.0814 39.6641 31.3322C39.6578 30.5164 40.1245 30.0688 40.9435 30.0783C41.7022 30.0878 42.0451 30.5735 42.1689 31.2465Z" fill="#7733AA"/>
<path d="M59.1956 40.5774C59.1004 41.2885 58.8242 41.8187 58.0528 41.8695C57.2305 41.9266 56.748 41.5203 56.7162 40.6917C56.6845 39.86 57.1988 39.3996 57.9639 39.3869C58.6908 39.3742 59.0464 39.9234 59.1956 40.5774Z" fill="#7733AA"/>
<path d="M14.0848 40.2073C14.8499 40.1946 15.3165 40.6295 15.3578 41.3311C15.4054 42.1216 14.8848 42.6708 14.1197 42.6867C13.3483 42.7025 12.8086 42.1756 12.8499 41.3756C12.888 40.6898 13.3102 40.2105 14.0848 40.2073Z" fill="#7733AA"/>
<path d="M65.3533 31.7006C65.2199 32.4847 64.8707 33.0021 64.0199 32.9704C63.2548 32.945 62.858 32.4625 62.8421 31.764C62.8263 30.9545 63.3628 30.4815 64.1342 30.5006C64.839 30.5164 65.2422 31.0148 65.3533 31.7006Z" fill="#7733AA"/>
<path d="M35.8657 33.2673C35.0721 33.0991 34.5578 32.6737 34.6467 31.861C34.7229 31.1562 35.1991 30.7149 35.9387 30.7435C36.6689 30.7721 37.1133 31.1848 37.1133 31.9467C37.1165 32.7816 36.6054 33.1498 35.8657 33.2673Z" fill="#7733AA"/>
<path d="M19.648 32.5337C19.5623 33.3337 19.1178 33.8353 18.3337 33.8195C17.6385 33.8036 17.1496 33.3591 17.1369 32.6163C17.1274 31.8956 17.5147 31.4036 18.2543 31.3528C19.067 31.2925 19.4988 31.7687 19.648 32.5337Z" fill="#7733AA"/>
<path d="M50.5536 34.9132C49.7822 34.8878 49.4076 34.4243 49.3949 33.7164C49.379 32.8974 49.8996 32.4434 50.6774 32.4656C51.3885 32.4847 51.8615 32.9736 51.852 33.6847C51.8425 34.4593 51.3949 34.9355 50.5536 34.9132Z" fill="#7733AA"/>
<path d="M31.3359 35.2945C30.6502 35.2469 30.1454 34.9707 30.0946 34.1961C30.0406 33.3834 30.447 32.8659 31.2343 32.8088C31.9422 32.758 32.4375 33.1834 32.5041 33.9104C32.5771 34.7104 32.1454 35.1707 31.3359 35.2945Z" fill="#7733AA"/>
<path d="M55.8534 36.8006C55.8027 37.5466 55.4154 37.9974 54.6852 38.0355C53.8598 38.08 53.39 37.5847 53.3677 36.8038C53.3487 36.0831 53.8185 35.6038 54.5328 35.5689C55.3296 35.5276 55.7677 36.0101 55.8534 36.8006Z" fill="#7733AA"/>
<path d="M18.442 37.4568C18.4071 38.2251 18.0325 38.6822 17.2833 38.7044C16.4642 38.7298 15.9817 38.2441 15.969 37.4568C15.9563 36.7394 16.4388 36.2409 17.1404 36.2124C17.9277 36.1806 18.3785 36.6759 18.442 37.4568Z" fill="#7733AA"/>
<path d="M60.6771 43.5547C61.5596 43.6214 62.0295 44.0658 62.0199 44.8563C62.0104 45.5706 61.5882 46.0277 60.8358 46.0404C60.1152 46.0531 59.6485 45.7229 59.5945 44.9452C59.5374 44.1102 60.0072 43.7198 60.6771 43.5547Z" fill="#7733AA"/>
<path d="M21.3432 46.6416C20.5305 46.5845 20.0353 46.1432 20.0512 45.3496C20.0639 44.6448 20.5242 44.1432 21.2511 44.1369C22.048 44.1273 22.521 44.6003 22.5146 45.4289C22.5083 46.1781 22.0829 46.5686 21.3432 46.6416Z" fill="#7733AA"/>
<path d="M24.0773 39.9219C24.8773 39.979 25.3566 40.3854 25.3662 41.2044C25.3757 41.9568 24.8995 42.3885 24.1979 42.433C23.4773 42.4774 22.9662 42.0362 22.9027 41.325C22.8392 40.5473 23.2677 40.0457 24.0773 39.9219Z" fill="#7733AA"/>
<path d="M33.1162 23.7066C32.4527 23.5256 31.9797 23.17 31.9924 22.4177C32.0083 21.6018 32.4401 21.1573 33.2655 21.1891C34.0115 21.2208 34.4242 21.6939 34.421 22.4018C34.421 23.2081 33.8496 23.5637 33.1162 23.7066Z" fill="#7733AA"/>
<path d="M28.601 37.1409C28.5914 38.0552 28.1565 38.5346 27.366 38.5346C26.6549 38.5346 26.1692 38.052 26.1438 37.3568C26.1153 36.579 26.5756 36.1028 27.401 36.0901C28.1629 36.0774 28.5184 36.5155 28.601 37.1409Z" fill="#7733AA"/>
</svg>
