<svg width="44" height="44" viewBox="0 0 44 44" fill="none" xmlns="http://www.w3.org/2000/svg">
<circle cx="21.9652" cy="21.6332" r="21.6332" fill="url(#paint0_linear_488_1060)"/>
<path fill-rule="evenodd" clip-rule="evenodd" d="M30.0171 15.4657C28.6516 14.8492 27.1873 14.395 25.6563 14.1349C25.6284 14.1299 25.6005 14.1424 25.5862 14.1675C25.3979 14.4971 25.1893 14.927 25.0432 15.265C23.3965 15.0224 21.7582 15.0224 20.1453 15.265C19.9992 14.9195 19.783 14.4971 19.5938 14.1675C19.5795 14.1432 19.5516 14.1307 19.5237 14.1349C17.9936 14.3942 16.5293 14.8484 15.1629 15.4657C15.1511 15.4708 15.141 15.4791 15.1342 15.49C12.3568 19.573 11.5959 23.5555 11.9692 27.4888C11.9708 27.508 11.9818 27.5264 11.997 27.5381C13.8295 28.8623 15.6046 29.6662 17.3467 30.199C17.3746 30.2074 17.4041 30.1973 17.4219 30.1747C17.834 29.621 18.2013 29.0371 18.5163 28.4231C18.5349 28.3872 18.5171 28.3445 18.4791 28.3303C17.8965 28.1128 17.3416 27.8476 16.8079 27.5465C16.7657 27.5222 16.7623 27.4628 16.8012 27.4344C16.9135 27.3516 17.0258 27.2654 17.1331 27.1784C17.1525 27.1625 17.1795 27.1592 17.2023 27.1692C20.7085 28.7443 24.5044 28.7443 27.9692 27.1692C27.9921 27.1583 28.0191 27.1617 28.0393 27.1776C28.1466 27.2646 28.2589 27.3516 28.3721 27.4344C28.4109 27.4628 28.4084 27.5222 28.3662 27.5465C27.8325 27.8535 27.2776 28.1128 26.6941 28.3294C26.6561 28.3437 26.6392 28.3872 26.6578 28.4231C26.9795 29.0363 27.3469 29.6201 27.7514 30.1739C27.7683 30.1973 27.7987 30.2074 27.8265 30.199C29.5771 29.6662 31.3522 28.8623 33.1847 27.5381C33.2007 27.5264 33.2109 27.5088 33.2125 27.4896C33.6593 22.9424 32.4643 18.9924 30.0449 15.4908C30.039 15.4791 30.0289 15.4708 30.0171 15.4657ZM21.0073 22.9713C21.0073 24.1545 20.132 25.1137 19.0524 25.1137C17.9727 25.1137 17.0974 24.1545 17.0974 22.9713C17.0974 21.788 17.9727 20.8288 19.0524 20.8288C20.132 20.8288 21.0073 21.788 21.0073 22.9713ZM26.1116 25.1137C27.1913 25.1137 28.0665 24.1545 28.0665 22.9713C28.0665 21.788 27.1913 20.8288 26.1116 20.8288C25.0319 20.8288 24.1566 21.788 24.1566 22.9713C24.1566 24.1545 25.0319 25.1137 26.1116 25.1137Z" fill="white"/>
<defs>
<linearGradient id="paint0_linear_488_1060" x1="2.10524" y1="37.7379" x2="43.5984" y2="37.7379" gradientUnits="userSpaceOnUse">
<stop offset="0.0339999" stop-color="#7E97FF"/>
<stop offset="0.909" stop-color="#C980FF"/>
</linearGradient>
</defs>
</svg>
