<svg width="117" height="125" viewBox="0 0 117 125" fill="none" xmlns="http://www.w3.org/2000/svg">
<path d="M53.0919 13.3333C37.7276 13.3333 25.2277 25.7499 25.2277 41.0119C25.2277 44.8426 26.5094 51.0592 26.5094 51.0592L21.3768 53.8658C16.8739 56.3237 14.0819 60.9405 14.0819 65.9226C14.0819 72.6098 18.8746 78.1953 25.2277 79.4796V95.5704C11.2955 91.994 2.30704 78.5714 0.988732 68.75C0.988732 59.6327 5.51886 46.7469 12.5239 41.0119C12.5017 37.878 13.7524 42.6488 12.5239 41.0119C12.5239 16.5994 28.5101 0 53.0919 0C69.9665 0 82.4268 8.60649 90.0393 23.2817C106.089 28.286 117 39.254 117 56.3095C117 73.8245 108.196 89.3039 92.1019 94.0812V76.6785C98.7336 72.8367 103.248 65.7731 103.248 57.6135C103.248 47.0071 95.6463 37.8676 85.1693 35.8803L80.6664 35.0278L78.9723 30.793C74.7202 20.181 64.5664 13.3333 53.0919 13.3333ZM106.034 101.905C101.492 101.905 97.4964 104.097 94.9497 107.44H80.9562V74.2262H70.1701V119.464H94.9497C97.4909 122.808 101.487 125 106.034 125C113.73 125 117 117.317 117 114.256C117 106.611 113.73 101.905 106.034 101.905ZM36.3734 107.44H22.3799C19.8387 104.097 15.843 101.905 11.2955 101.905C3.59941 101.905 0 106.611 0 114.256C0 121.901 3.59941 125 11.2955 125C15.8374 125 19.8331 122.808 22.3799 119.464H48.4779V74.2262H36.3734V107.44Z" fill="url(#paint0_linear_1642_3094)"/>
<defs>
<linearGradient id="paint0_linear_1642_3094" x1="4.79508" y1="109.028" x2="117" y2="109.028" gradientUnits="userSpaceOnUse">
<stop offset="0.0339999" stop-color="#7E97FF"/>
<stop offset="0.909" stop-color="#C980FF"/>
</linearGradient>
</defs>
</svg>
