<svg width="152" height="114" viewBox="0 0 152 114" fill="none" xmlns="http://www.w3.org/2000/svg">
<path d="M64.674 59.6793L55.7977 68.5557L41.6293 54.3874C36.7643 49.5223 36.7643 41.6064 41.6293 36.7351L55.7851 22.5793L64.6615 31.4557L50.5057 45.6115L64.674 59.6793ZM96.0616 68.5557L110.23 54.3874C115.095 49.5223 115.095 41.6064 110.23 36.7351L96.0741 22.5793L87.1977 31.4557L101.353 45.511L87.1852 59.6793L96.0616 68.5557ZM151.26 75.53V94.3625C151.26 104.745 142.81 113.195 132.427 113.195H19.4321C9.04912 113.195 0.599609 104.745 0.599609 94.3625V75.53H13.1546V0.200012H138.705V75.53H151.26ZM25.7096 75.53H56.5572L62.8347 81.8075H89.0245L95.302 75.53H126.15V12.755H25.7096V75.53ZM138.705 88.085H100.5L94.2222 94.3625H57.637L51.3595 88.085H13.1546V94.3625C13.1546 97.8214 15.9732 100.64 19.4321 100.64H132.427C135.886 100.64 138.705 97.8214 138.705 94.3625V88.085Z" fill="url(#paint0_linear_1024_1327)"/>
<defs>
<linearGradient id="paint0_linear_1024_1327" x1="6.7742" y1="98.7568" x2="151.26" y2="98.7568" gradientUnits="userSpaceOnUse">
<stop offset="0.0339999" stop-color="#7E97FF"/>
<stop offset="0.909" stop-color="#C980FF"/>
</linearGradient>
</defs>
</svg>
