<svg width="186" height="186" viewBox="0 0 186 186" fill="none" xmlns="http://www.w3.org/2000/svg">
<mask id="path-1-outside-1_1024_1334" maskUnits="userSpaceOnUse" x="15.7402" y="13.88" width="153" height="159" fill="black">
<rect fill="white" x="15.7402" y="13.88" width="153" height="159"/>
<path d="M87.824 165.664C88.4202 167.357 87.5388 169.219 85.8539 169.818C83.4303 170.677 80.8899 171.12 78.2913 171.12H71.8109C59.3037 171.12 49.1294 160.898 49.1294 148.333V146.067C49.1294 134.953 44.4765 124.445 36.3695 117.218C21.7173 104.184 14.5888 84.6844 17.3106 65.0547C20.9072 39.1879 42.2861 18.2496 68.1559 15.2677C98.8083 11.7324 127.082 32.7488 132.468 63.1276C132.785 64.8985 131.606 66.5913 129.849 66.9038C128.067 67.2163 126.408 66.0444 126.091 64.2735C121.308 37.2737 96.1708 18.6076 68.8947 21.7393C45.9151 24.3956 26.9146 42.9901 23.7262 65.9597C21.3025 83.4213 27.6339 100.766 40.6595 112.355C46.628 117.667 50.9958 124.497 53.4195 132.063H71.8044V82.9591C62.6216 81.403 55.6034 73.3623 55.6034 63.7005C55.6034 61.9036 57.055 60.4452 58.8436 60.4452C60.6322 60.4452 62.0838 61.9036 62.0838 63.7005C62.0838 70.8818 67.8967 76.7219 75.0446 76.7219C82.1925 76.7219 88.0054 70.8818 88.0054 63.7005C88.0054 61.9036 89.4571 60.4452 91.2456 60.4452C93.0342 60.4452 94.4859 61.9036 94.4859 63.7005C94.4859 73.3623 87.4676 81.403 78.2848 82.9591V135.318C78.2848 137.115 76.8332 138.573 75.0446 138.573H54.9877C55.396 141.034 55.6034 143.541 55.6034 146.073V148.339C55.6034 157.311 62.8744 164.616 71.8044 164.616H78.2848C80.1447 164.616 81.9592 164.303 83.683 163.691C85.3549 163.086 87.2148 163.971 87.8175 165.671L87.824 165.664ZM139.855 125.545C139.855 132.727 134.042 138.567 126.894 138.567C119.747 138.567 113.934 132.727 113.934 125.545C113.934 118.364 119.747 112.524 126.894 112.524C134.042 112.524 139.855 118.364 139.855 125.545ZM133.375 125.545C133.375 121.958 130.472 119.035 126.894 119.035C123.317 119.035 120.414 121.958 120.414 125.545C120.414 129.133 123.317 132.056 126.894 132.056C130.472 132.056 133.375 129.133 133.375 125.545ZM167.073 141.119C167.74 143.645 167.378 146.275 166.069 148.521C164.76 150.774 162.66 152.382 160.145 153.046C157.644 153.71 155.026 153.352 152.771 152.031L148.617 149.596C145.143 152.779 141.061 155.143 136.609 156.549V161.354C136.609 166.738 132.247 171.12 126.888 171.12C121.529 171.12 117.167 166.738 117.167 161.354V156.549C112.715 155.143 108.639 152.779 105.159 149.596L101.005 152.031C98.7565 153.352 96.1448 153.71 93.6304 153.046C91.116 152.382 89.0164 150.774 87.7073 148.521C86.3983 146.275 86.0419 143.645 86.6964 141.119C87.3509 138.593 88.9581 136.477 91.2003 135.162L95.3866 132.707C94.7775 130.2 94.4794 127.844 94.4794 125.545C94.4794 123.247 94.7775 120.89 95.3866 118.377L91.2003 115.923C88.9581 114.607 87.3574 112.491 86.6964 109.965C86.0354 107.439 86.3983 104.809 87.7073 102.563C89.0164 100.31 91.116 98.7084 93.6304 98.0443C96.1448 97.3802 98.7629 97.7448 101.005 99.0534L105.159 101.488C108.639 98.3112 112.715 95.9413 117.167 94.5415V89.7367C117.167 84.3523 121.529 79.9707 126.888 79.9707C132.247 79.9707 136.609 84.3523 136.609 89.7367V94.5415C141.061 95.9478 145.13 98.3112 148.617 101.488L152.777 99.0534C155.026 97.7383 157.644 97.3867 160.145 98.0443C162.66 98.7084 164.76 100.317 166.069 102.569C167.378 104.822 167.74 107.452 167.073 109.972C166.412 112.498 164.818 114.607 162.576 115.929L158.389 118.377C158.998 120.884 159.297 123.247 159.297 125.545C159.297 127.844 158.998 130.207 158.389 132.707L162.576 135.162C164.824 136.477 166.418 138.593 167.073 141.119ZM160.806 142.773C160.586 141.933 160.055 141.23 159.309 140.793L152.965 137.069C151.656 136.301 151.053 134.732 151.507 133.28C152.401 130.428 152.816 127.967 152.816 125.552C152.816 123.136 152.401 120.675 151.507 117.817C151.053 116.365 151.656 114.796 152.965 114.028L159.309 110.31C160.055 109.874 160.586 109.171 160.806 108.331C161.027 107.491 160.91 106.612 160.469 105.864C160.035 105.115 159.329 104.574 158.493 104.36C157.631 104.132 156.776 104.262 156.037 104.692L149.738 108.383C148.442 109.145 146.776 108.911 145.746 107.804C142.182 103.989 137.652 101.365 132.649 100.219C131.172 99.8803 130.128 98.5651 130.128 97.0481V89.7562C130.128 87.9593 128.67 86.5009 126.888 86.5009C125.106 86.5009 123.648 87.9593 123.648 89.7562V97.0481C123.648 98.5651 122.604 99.8868 121.127 100.219C116.124 101.365 111.588 103.989 108.03 107.804C107 108.911 105.328 109.145 104.038 108.383L97.7455 104.692C96.9938 104.255 96.1189 104.132 95.2894 104.36C94.4535 104.581 93.7536 105.115 93.3129 105.864C92.8787 106.619 92.7556 107.491 92.9759 108.331C93.1963 109.171 93.7276 109.881 94.4729 110.317L100.817 114.034C102.126 114.796 102.729 116.365 102.275 117.817C101.381 120.682 100.966 123.143 100.966 125.552C100.966 127.961 101.381 130.422 102.275 133.287C102.729 134.738 102.126 136.307 100.817 137.076L94.4729 140.8C93.7276 141.236 93.1898 141.946 92.9759 142.786C92.7556 143.625 92.8722 144.498 93.3129 145.247C93.7471 146.002 94.4535 146.536 95.2894 146.757C96.1319 146.978 97.0003 146.861 97.7455 146.419L104.044 142.727C104.55 142.428 105.114 142.284 105.678 142.284C106.552 142.284 107.414 142.636 108.036 143.313C111.601 147.128 116.13 149.752 121.133 150.898C122.611 151.236 123.654 152.552 123.654 154.069V161.361C123.654 163.157 125.112 164.616 126.894 164.616C128.677 164.616 130.135 163.157 130.135 161.361V154.069C130.135 152.552 131.178 151.23 132.656 150.898C137.658 149.752 142.195 147.128 145.752 143.313C146.783 142.2 148.448 141.959 149.744 142.727L156.043 146.419C156.802 146.861 157.67 146.972 158.499 146.757C159.335 146.536 160.035 146.002 160.476 145.253C160.91 144.498 161.033 143.625 160.813 142.786L160.806 142.773Z"/>
</mask>
<path d="M87.824 165.664C88.4202 167.357 87.5388 169.219 85.8539 169.818C83.4303 170.677 80.8899 171.12 78.2913 171.12H71.8109C59.3037 171.12 49.1294 160.898 49.1294 148.333V146.067C49.1294 134.953 44.4765 124.445 36.3695 117.218C21.7173 104.184 14.5888 84.6844 17.3106 65.0547C20.9072 39.1879 42.2861 18.2496 68.1559 15.2677C98.8083 11.7324 127.082 32.7488 132.468 63.1276C132.785 64.8985 131.606 66.5913 129.849 66.9038C128.067 67.2163 126.408 66.0444 126.091 64.2735C121.308 37.2737 96.1708 18.6076 68.8947 21.7393C45.9151 24.3956 26.9146 42.9901 23.7262 65.9597C21.3025 83.4213 27.6339 100.766 40.6595 112.355C46.628 117.667 50.9958 124.497 53.4195 132.063H71.8044V82.9591C62.6216 81.403 55.6034 73.3623 55.6034 63.7005C55.6034 61.9036 57.055 60.4452 58.8436 60.4452C60.6322 60.4452 62.0838 61.9036 62.0838 63.7005C62.0838 70.8818 67.8967 76.7219 75.0446 76.7219C82.1925 76.7219 88.0054 70.8818 88.0054 63.7005C88.0054 61.9036 89.4571 60.4452 91.2456 60.4452C93.0342 60.4452 94.4859 61.9036 94.4859 63.7005C94.4859 73.3623 87.4676 81.403 78.2848 82.9591V135.318C78.2848 137.115 76.8332 138.573 75.0446 138.573H54.9877C55.396 141.034 55.6034 143.541 55.6034 146.073V148.339C55.6034 157.311 62.8744 164.616 71.8044 164.616H78.2848C80.1447 164.616 81.9592 164.303 83.683 163.691C85.3549 163.086 87.2148 163.971 87.8175 165.671L87.824 165.664ZM139.855 125.545C139.855 132.727 134.042 138.567 126.894 138.567C119.747 138.567 113.934 132.727 113.934 125.545C113.934 118.364 119.747 112.524 126.894 112.524C134.042 112.524 139.855 118.364 139.855 125.545ZM133.375 125.545C133.375 121.958 130.472 119.035 126.894 119.035C123.317 119.035 120.414 121.958 120.414 125.545C120.414 129.133 123.317 132.056 126.894 132.056C130.472 132.056 133.375 129.133 133.375 125.545ZM167.073 141.119C167.74 143.645 167.378 146.275 166.069 148.521C164.76 150.774 162.66 152.382 160.145 153.046C157.644 153.71 155.026 153.352 152.771 152.031L148.617 149.596C145.143 152.779 141.061 155.143 136.609 156.549V161.354C136.609 166.738 132.247 171.12 126.888 171.12C121.529 171.12 117.167 166.738 117.167 161.354V156.549C112.715 155.143 108.639 152.779 105.159 149.596L101.005 152.031C98.7565 153.352 96.1448 153.71 93.6304 153.046C91.116 152.382 89.0164 150.774 87.7073 148.521C86.3983 146.275 86.0419 143.645 86.6964 141.119C87.3509 138.593 88.9581 136.477 91.2003 135.162L95.3866 132.707C94.7775 130.2 94.4794 127.844 94.4794 125.545C94.4794 123.247 94.7775 120.89 95.3866 118.377L91.2003 115.923C88.9581 114.607 87.3574 112.491 86.6964 109.965C86.0354 107.439 86.3983 104.809 87.7073 102.563C89.0164 100.31 91.116 98.7084 93.6304 98.0443C96.1448 97.3802 98.7629 97.7448 101.005 99.0534L105.159 101.488C108.639 98.3112 112.715 95.9413 117.167 94.5415V89.7367C117.167 84.3523 121.529 79.9707 126.888 79.9707C132.247 79.9707 136.609 84.3523 136.609 89.7367V94.5415C141.061 95.9478 145.13 98.3112 148.617 101.488L152.777 99.0534C155.026 97.7383 157.644 97.3867 160.145 98.0443C162.66 98.7084 164.76 100.317 166.069 102.569C167.378 104.822 167.74 107.452 167.073 109.972C166.412 112.498 164.818 114.607 162.576 115.929L158.389 118.377C158.998 120.884 159.297 123.247 159.297 125.545C159.297 127.844 158.998 130.207 158.389 132.707L162.576 135.162C164.824 136.477 166.418 138.593 167.073 141.119ZM160.806 142.773C160.586 141.933 160.055 141.23 159.309 140.793L152.965 137.069C151.656 136.301 151.053 134.732 151.507 133.28C152.401 130.428 152.816 127.967 152.816 125.552C152.816 123.136 152.401 120.675 151.507 117.817C151.053 116.365 151.656 114.796 152.965 114.028L159.309 110.31C160.055 109.874 160.586 109.171 160.806 108.331C161.027 107.491 160.91 106.612 160.469 105.864C160.035 105.115 159.329 104.574 158.493 104.36C157.631 104.132 156.776 104.262 156.037 104.692L149.738 108.383C148.442 109.145 146.776 108.911 145.746 107.804C142.182 103.989 137.652 101.365 132.649 100.219C131.172 99.8803 130.128 98.5651 130.128 97.0481V89.7562C130.128 87.9593 128.67 86.5009 126.888 86.5009C125.106 86.5009 123.648 87.9593 123.648 89.7562V97.0481C123.648 98.5651 122.604 99.8868 121.127 100.219C116.124 101.365 111.588 103.989 108.03 107.804C107 108.911 105.328 109.145 104.038 108.383L97.7455 104.692C96.9938 104.255 96.1189 104.132 95.2894 104.36C94.4535 104.581 93.7536 105.115 93.3129 105.864C92.8787 106.619 92.7556 107.491 92.9759 108.331C93.1963 109.171 93.7276 109.881 94.4729 110.317L100.817 114.034C102.126 114.796 102.729 116.365 102.275 117.817C101.381 120.682 100.966 123.143 100.966 125.552C100.966 127.961 101.381 130.422 102.275 133.287C102.729 134.738 102.126 136.307 100.817 137.076L94.4729 140.8C93.7276 141.236 93.1898 141.946 92.9759 142.786C92.7556 143.625 92.8722 144.498 93.3129 145.247C93.7471 146.002 94.4535 146.536 95.2894 146.757C96.1319 146.978 97.0003 146.861 97.7455 146.419L104.044 142.727C104.55 142.428 105.114 142.284 105.678 142.284C106.552 142.284 107.414 142.636 108.036 143.313C111.601 147.128 116.13 149.752 121.133 150.898C122.611 151.236 123.654 152.552 123.654 154.069V161.361C123.654 163.157 125.112 164.616 126.894 164.616C128.677 164.616 130.135 163.157 130.135 161.361V154.069C130.135 152.552 131.178 151.23 132.656 150.898C137.658 149.752 142.195 147.128 145.752 143.313C146.783 142.2 148.448 141.959 149.744 142.727L156.043 146.419C156.802 146.861 157.67 146.972 158.499 146.757C159.335 146.536 160.035 146.002 160.476 145.253C160.91 144.498 161.033 143.625 160.813 142.786L160.806 142.773Z" fill="url(#paint0_linear_1024_1334)"/>
<path d="M87.824 165.664C88.4202 167.357 87.5388 169.219 85.8539 169.818C83.4303 170.677 80.8899 171.12 78.2913 171.12H71.8109C59.3037 171.12 49.1294 160.898 49.1294 148.333V146.067C49.1294 134.953 44.4765 124.445 36.3695 117.218C21.7173 104.184 14.5888 84.6844 17.3106 65.0547C20.9072 39.1879 42.2861 18.2496 68.1559 15.2677C98.8083 11.7324 127.082 32.7488 132.468 63.1276C132.785 64.8985 131.606 66.5913 129.849 66.9038C128.067 67.2163 126.408 66.0444 126.091 64.2735C121.308 37.2737 96.1708 18.6076 68.8947 21.7393C45.9151 24.3956 26.9146 42.9901 23.7262 65.9597C21.3025 83.4213 27.6339 100.766 40.6595 112.355C46.628 117.667 50.9958 124.497 53.4195 132.063H71.8044V82.9591C62.6216 81.403 55.6034 73.3623 55.6034 63.7005C55.6034 61.9036 57.055 60.4452 58.8436 60.4452C60.6322 60.4452 62.0838 61.9036 62.0838 63.7005C62.0838 70.8818 67.8967 76.7219 75.0446 76.7219C82.1925 76.7219 88.0054 70.8818 88.0054 63.7005C88.0054 61.9036 89.4571 60.4452 91.2456 60.4452C93.0342 60.4452 94.4859 61.9036 94.4859 63.7005C94.4859 73.3623 87.4676 81.403 78.2848 82.9591V135.318C78.2848 137.115 76.8332 138.573 75.0446 138.573H54.9877C55.396 141.034 55.6034 143.541 55.6034 146.073V148.339C55.6034 157.311 62.8744 164.616 71.8044 164.616H78.2848C80.1447 164.616 81.9592 164.303 83.683 163.691C85.3549 163.086 87.2148 163.971 87.8175 165.671L87.824 165.664ZM139.855 125.545C139.855 132.727 134.042 138.567 126.894 138.567C119.747 138.567 113.934 132.727 113.934 125.545C113.934 118.364 119.747 112.524 126.894 112.524C134.042 112.524 139.855 118.364 139.855 125.545ZM133.375 125.545C133.375 121.958 130.472 119.035 126.894 119.035C123.317 119.035 120.414 121.958 120.414 125.545C120.414 129.133 123.317 132.056 126.894 132.056C130.472 132.056 133.375 129.133 133.375 125.545ZM167.073 141.119C167.74 143.645 167.378 146.275 166.069 148.521C164.76 150.774 162.66 152.382 160.145 153.046C157.644 153.71 155.026 153.352 152.771 152.031L148.617 149.596C145.143 152.779 141.061 155.143 136.609 156.549V161.354C136.609 166.738 132.247 171.12 126.888 171.12C121.529 171.12 117.167 166.738 117.167 161.354V156.549C112.715 155.143 108.639 152.779 105.159 149.596L101.005 152.031C98.7565 153.352 96.1448 153.71 93.6304 153.046C91.116 152.382 89.0164 150.774 87.7073 148.521C86.3983 146.275 86.0419 143.645 86.6964 141.119C87.3509 138.593 88.9581 136.477 91.2003 135.162L95.3866 132.707C94.7775 130.2 94.4794 127.844 94.4794 125.545C94.4794 123.247 94.7775 120.89 95.3866 118.377L91.2003 115.923C88.9581 114.607 87.3574 112.491 86.6964 109.965C86.0354 107.439 86.3983 104.809 87.7073 102.563C89.0164 100.31 91.116 98.7084 93.6304 98.0443C96.1448 97.3802 98.7629 97.7448 101.005 99.0534L105.159 101.488C108.639 98.3112 112.715 95.9413 117.167 94.5415V89.7367C117.167 84.3523 121.529 79.9707 126.888 79.9707C132.247 79.9707 136.609 84.3523 136.609 89.7367V94.5415C141.061 95.9478 145.13 98.3112 148.617 101.488L152.777 99.0534C155.026 97.7383 157.644 97.3867 160.145 98.0443C162.66 98.7084 164.76 100.317 166.069 102.569C167.378 104.822 167.74 107.452 167.073 109.972C166.412 112.498 164.818 114.607 162.576 115.929L158.389 118.377C158.998 120.884 159.297 123.247 159.297 125.545C159.297 127.844 158.998 130.207 158.389 132.707L162.576 135.162C164.824 136.477 166.418 138.593 167.073 141.119ZM160.806 142.773C160.586 141.933 160.055 141.23 159.309 140.793L152.965 137.069C151.656 136.301 151.053 134.732 151.507 133.28C152.401 130.428 152.816 127.967 152.816 125.552C152.816 123.136 152.401 120.675 151.507 117.817C151.053 116.365 151.656 114.796 152.965 114.028L159.309 110.31C160.055 109.874 160.586 109.171 160.806 108.331C161.027 107.491 160.91 106.612 160.469 105.864C160.035 105.115 159.329 104.574 158.493 104.36C157.631 104.132 156.776 104.262 156.037 104.692L149.738 108.383C148.442 109.145 146.776 108.911 145.746 107.804C142.182 103.989 137.652 101.365 132.649 100.219C131.172 99.8803 130.128 98.5651 130.128 97.0481V89.7562C130.128 87.9593 128.67 86.5009 126.888 86.5009C125.106 86.5009 123.648 87.9593 123.648 89.7562V97.0481C123.648 98.5651 122.604 99.8868 121.127 100.219C116.124 101.365 111.588 103.989 108.03 107.804C107 108.911 105.328 109.145 104.038 108.383L97.7455 104.692C96.9938 104.255 96.1189 104.132 95.2894 104.36C94.4535 104.581 93.7536 105.115 93.3129 105.864C92.8787 106.619 92.7556 107.491 92.9759 108.331C93.1963 109.171 93.7276 109.881 94.4729 110.317L100.817 114.034C102.126 114.796 102.729 116.365 102.275 117.817C101.381 120.682 100.966 123.143 100.966 125.552C100.966 127.961 101.381 130.422 102.275 133.287C102.729 134.738 102.126 136.307 100.817 137.076L94.4729 140.8C93.7276 141.236 93.1898 141.946 92.9759 142.786C92.7556 143.625 92.8722 144.498 93.3129 145.247C93.7471 146.002 94.4535 146.536 95.2894 146.757C96.1319 146.978 97.0003 146.861 97.7455 146.419L104.044 142.727C104.55 142.428 105.114 142.284 105.678 142.284C106.552 142.284 107.414 142.636 108.036 143.313C111.601 147.128 116.13 149.752 121.133 150.898C122.611 151.236 123.654 152.552 123.654 154.069V161.361C123.654 163.157 125.112 164.616 126.894 164.616C128.677 164.616 130.135 163.157 130.135 161.361V154.069C130.135 152.552 131.178 151.23 132.656 150.898C137.658 149.752 142.195 147.128 145.752 143.313C146.783 142.2 148.448 141.959 149.744 142.727L156.043 146.419C156.802 146.861 157.67 146.972 158.499 146.757C159.335 146.536 160.035 146.002 160.476 145.253C160.91 144.498 161.033 143.625 160.813 142.786L160.806 142.773Z" stroke="url(#paint1_linear_1024_1334)" stroke-width="2" mask="url(#path-1-outside-1_1024_1334)"/>
<defs>
<linearGradient id="paint0_linear_1024_1334" x1="22.9148" y1="151.156" x2="167.4" y2="151.156" gradientUnits="userSpaceOnUse">
<stop offset="0.0339999" stop-color="#7E97FF"/>
<stop offset="0.909" stop-color="#C980FF"/>
</linearGradient>
<linearGradient id="paint1_linear_1024_1334" x1="22.9148" y1="151.156" x2="167.4" y2="151.156" gradientUnits="userSpaceOnUse">
<stop offset="0.0339999" stop-color="#7E97FF"/>
<stop offset="0.909" stop-color="#C980FF"/>
</linearGradient>
</defs>
</svg>
