<svg width="154" height="154" viewBox="0 0 154 154" fill="none" xmlns="http://www.w3.org/2000/svg">
<path d="M137.891 90.1606L137.961 63.8458C147.042 62.3122 154 54.439 154 44.9167C154 34.3035 145.368 25.6667 134.761 25.6667C128.355 25.6667 122.711 28.8429 119.216 33.6747L96.1233 20.8349C96.1682 20.3023 96.2837 19.7954 96.2837 19.25C96.2837 8.63683 87.6519 0 77.0449 0C66.4379 0 57.8061 8.63683 57.8061 19.25C57.8061 19.8018 57.9215 20.328 57.9728 20.867L34.7837 33.5592C31.2758 28.798 25.6838 25.6667 19.335 25.6667C8.72799 25.6667 0.0961939 34.3035 0.0961939 44.9167C0.0961939 54.4326 7.04139 62.2994 16.1221 63.8394L16.0516 90.1542C6.95802 91.6942 0 99.561 0 109.083C0 119.696 8.6318 128.333 19.2388 128.333C25.5876 128.333 31.1861 125.202 34.6875 120.441L57.8767 133.133C57.8318 133.672 57.7163 134.198 57.7163 134.75C57.7163 145.363 66.3481 154 76.9551 154C87.5621 154 96.1939 145.363 96.1939 134.75C96.1939 134.211 96.0785 133.704 96.0336 133.178L119.223 120.447C122.731 125.208 128.323 128.333 134.671 128.333C145.278 128.333 153.91 119.696 153.91 109.083C153.91 99.5674 146.965 91.7006 137.884 90.1606H137.891ZM134.761 32.0833C141.835 32.0833 147.587 37.8391 147.587 44.9167C147.587 51.9942 141.835 57.75 134.761 57.75C127.688 57.75 121.935 51.9942 121.935 44.9167C121.935 37.8391 127.688 32.0833 134.761 32.0833ZM77.0449 6.41667C84.1183 6.41667 89.8707 12.1724 89.8707 19.25C89.8707 26.3276 84.1183 32.0833 77.0449 32.0833C69.9714 32.0833 64.219 26.3276 64.219 19.25C64.219 12.1724 69.9714 6.41667 77.0449 6.41667ZM6.50271 44.9167C6.50271 37.8391 12.2551 32.0833 19.3286 32.0833C26.402 32.0833 32.1544 37.8391 32.1544 44.9167C32.1544 51.9942 26.402 57.75 19.3286 57.75C12.2551 57.75 6.50271 51.9942 6.50271 44.9167ZM19.2388 121.917C12.1653 121.917 6.41293 116.161 6.41293 109.083C6.41293 102.006 12.1653 96.25 19.2388 96.25C26.3122 96.25 32.0646 102.006 32.0646 109.083C32.0646 116.161 26.3122 121.917 19.2388 121.917ZM76.9551 147.583C69.8817 147.583 64.1293 141.828 64.1293 134.75C64.1293 127.672 69.8817 121.917 76.9551 121.917C84.0286 121.917 89.781 127.672 89.781 134.75C89.781 141.828 84.0286 147.583 76.9551 147.583ZM94.4047 126.748C91.3585 120.126 84.7083 115.5 76.9551 115.5C69.2019 115.5 62.5773 120.12 59.5248 126.723L37.5477 114.691C38.0992 112.901 38.4776 111.047 38.4776 109.083C38.4776 99.5674 31.5324 91.7006 22.4517 90.1606L22.5222 63.8458C31.6029 62.3122 38.5609 54.439 38.5609 44.9167C38.5609 42.9532 38.1761 41.0923 37.6311 39.3085L59.6081 27.2837C62.6607 33.8864 69.3045 38.5064 77.0385 38.5064C84.7725 38.5064 91.4291 33.88 94.4752 27.2708L116.401 39.4625C115.882 41.2078 115.516 43.0173 115.516 44.9231C115.516 54.439 122.461 62.3058 131.542 63.8458L131.471 90.1606C122.391 91.6942 115.433 99.5674 115.433 109.09C115.433 111.053 115.817 112.914 116.363 114.698L94.3983 126.755L94.4047 126.748ZM134.671 121.917C127.598 121.917 121.846 116.161 121.846 109.083C121.846 102.006 127.598 96.25 134.671 96.25C141.745 96.25 147.497 102.006 147.497 109.083C147.497 116.161 141.745 121.917 134.671 121.917ZM96.2324 58.6162L83.4001 51.2756C79.4626 49.0233 74.5887 49.0298 70.6704 51.2756L57.8446 58.6098C53.8622 60.8942 51.3868 65.1612 51.3932 69.7556V85.7844C51.3932 90.3788 53.875 94.6394 57.8574 96.9173L70.6769 104.258C72.6456 105.381 74.8453 105.946 77.0449 105.946C79.2445 105.946 81.4506 105.387 83.4065 104.264L96.2324 96.9237C100.221 94.6458 102.697 90.3723 102.697 85.778V69.7492C102.697 65.1612 100.215 60.8942 96.2324 58.6162ZM73.8512 56.8517C74.8324 56.287 75.9354 56.0111 77.0385 56.0111C78.1415 56.0111 79.2381 56.287 80.2193 56.8517L93.0516 64.1923C93.4299 64.4105 93.757 64.6928 94.0776 64.9752L77.3142 74.4077C77.2244 74.4012 77.1475 74.3563 77.0577 74.3563C76.9679 74.3563 76.891 74.4012 76.8012 74.4077L60.0122 64.9623C60.3328 64.68 60.647 64.4041 61.0254 64.1859L73.8512 56.8517ZM61.0382 91.3477C59.0502 90.2119 57.8125 88.0752 57.8125 85.7844V71.0774L73.8577 80.1057V98.6819L61.0382 91.3477ZM93.058 91.3477L80.2706 98.6627V80.1057L96.2901 71.0902V85.778C96.2901 88.0752 95.0588 90.2055 93.0644 91.3477H93.058Z" fill="url(#paint0_linear_1642_2460)"/>
<defs>
<linearGradient id="paint0_linear_1642_2460" x1="6.31147" y1="134.322" x2="154" y2="134.322" gradientUnits="userSpaceOnUse">
<stop offset="0.0339999" stop-color="#7E97FF"/>
<stop offset="0.909" stop-color="#C980FF"/>
</linearGradient>
</defs>
</svg>
