<svg width="86" height="93" viewBox="0 0 86 93" fill="none" xmlns="http://www.w3.org/2000/svg">
<path d="M61.2727 58.5487C59.6473 57.5392 58.1426 56.59 56.622 55.6662C47.5839 50.1678 37.6061 47.044 27.5077 44.2503C22.714 42.9233 17.8918 41.6598 13.714 38.8186C4.61559 32.6281 0.51718 23.8567 0.653688 12.9963C0.691783 10.0313 0.799714 10.0471 3.63463 9.05031C12.3235 5.99316 21.0346 6.31698 29.5648 9.42174C33.9045 11.0027 37.4759 14.0471 40.8664 17.1963C46.3553 22.3011 50.5997 28.2979 53.8346 35.044C56.8854 41.4027 59.3108 47.9741 60.8029 54.8725C61.06 56.0313 61.3426 57.2027 61.2727 58.5487Z" fill="#7733AA"/>
<path d="M65.5152 58.4797C64.3057 49.3464 61.1692 40.975 57.3216 32.8289C56.1946 30.4416 55.0422 28.0639 54.2263 25.5464C51.947 18.5273 54.8136 9.78766 60.7819 5.4575C63.1946 3.70512 65.8232 2.42894 68.6486 1.45433C71.7692 0.378145 74.3375 1.04164 76.8041 3.13053C81.6645 7.24799 84.3787 12.4829 85.4232 18.7019C86.6136 25.7845 85.0009 32.3305 81.766 38.575C78.766 44.3623 70.7375 54.1813 65.5152 58.4797Z" fill="#7733AA"/>
<path d="M61.3743 64.4941C60.1013 75.5005 54.9108 83.5735 44.8822 88.2941C40.4378 90.3862 35.714 91.4052 30.8886 92.0973C29.8791 92.2433 29.5489 91.9322 29.4156 90.9163C28.2568 82.1227 29.7679 73.8052 33.6378 65.8528C35.7584 61.4941 38.6854 57.6909 41.5584 53.8433C41.8981 53.3862 42.1489 53.1195 42.8251 53.3893C49.0695 55.8973 55.0187 58.9417 60.3997 63.0211C60.9298 63.4274 61.6029 63.7862 61.3743 64.4941Z" fill="#7733AA"/>
</svg>
