<svg width="45" height="44" viewBox="0 0 45 44" fill="none" xmlns="http://www.w3.org/2000/svg">
<circle cx="22.4324" cy="21.6332" r="21.6332" fill="url(#paint0_linear_488_1054)"/>
<path fill-rule="evenodd" clip-rule="evenodd" d="M25.7359 14.9367C24.7006 14.9367 23.8613 15.776 23.8613 16.8113V19.4794C23.8613 19.6328 23.9857 19.7572 24.1391 19.7572H28.0936C28.2627 19.7572 28.3925 19.9069 28.3686 20.0743L27.9124 23.2679C27.8928 23.4047 27.7756 23.5064 27.6374 23.5064H24.1391C23.9857 23.5064 23.8613 23.6308 23.8613 23.7842V32.0661C23.8613 32.2195 23.7369 32.3439 23.5835 32.3439H20.3899C20.2364 32.3439 20.112 32.2195 20.112 32.0661V23.7842C20.112 23.6308 19.9877 23.5064 19.8342 23.5064H16.9084C16.755 23.5064 16.6306 23.382 16.6306 23.2286V20.035C16.6306 19.8816 16.755 19.7572 16.9084 19.7572H19.8342C19.9877 19.7572 20.112 19.6328 20.112 19.4794V16.8113C20.112 13.7054 22.6299 11.1875 25.7359 11.1875H28.6717C28.8251 11.1875 28.9495 11.3119 28.9495 11.4653V14.6589C28.9495 14.8123 28.8251 14.9367 28.6717 14.9367H25.7359Z" fill="white"/>
<defs>
<linearGradient id="paint0_linear_488_1054" x1="2.57241" y1="37.7379" x2="44.0656" y2="37.7379" gradientUnits="userSpaceOnUse">
<stop offset="0.0339999" stop-color="#7E97FF"/>
<stop offset="0.909" stop-color="#C980FF"/>
</linearGradient>
</defs>
</svg>
