<svg width="44" height="44" viewBox="0 0 44 44" fill="none" xmlns="http://www.w3.org/2000/svg">
<circle cx="22.1659" cy="21.6332" r="21.6332" fill="url(#paint0_linear_488_1051)"/>
<path d="M22.7914 25.9168C24.8621 25.9168 26.5407 24.2383 26.5407 22.1676C26.5407 20.097 24.8621 18.4184 22.7914 18.4184C20.7208 18.4184 19.0422 20.097 19.0422 22.1676C19.0422 24.2383 20.7208 25.9168 22.7914 25.9168Z" fill="white"/>
<path fill-rule="evenodd" clip-rule="evenodd" d="M12.0793 21.632C12.0793 17.6273 12.0793 15.625 12.9404 14.1335C13.5045 13.1565 14.3159 12.3451 15.293 11.781C16.7844 10.9199 18.7868 10.9199 22.7914 10.9199C26.7961 10.9199 28.7984 10.9199 30.2899 11.781C31.267 12.3451 32.0783 13.1565 32.6424 14.1335C33.5035 15.625 33.5035 17.6273 33.5035 21.632C33.5035 25.6367 33.5035 27.639 32.6424 29.1305C32.0783 30.1075 31.267 30.9189 30.2899 31.483C28.7984 32.3441 26.7961 32.3441 22.7914 32.3441C18.7868 32.3441 16.7844 32.3441 15.293 31.483C14.3159 30.9189 13.5045 30.1075 12.9404 29.1305C12.0793 27.639 12.0793 25.6367 12.0793 21.632ZM22.7914 27.5237C25.7495 27.5237 28.1475 25.1257 28.1475 22.1676C28.1475 19.2096 25.7495 16.8116 22.7914 16.8116C19.8334 16.8116 17.4354 19.2096 17.4354 22.1676C17.4354 25.1257 19.8334 27.5237 22.7914 27.5237ZM27.6119 17.3472C28.4993 17.3472 29.2187 16.6278 29.2187 15.7404C29.2187 14.8529 28.4993 14.1335 27.6119 14.1335C26.7245 14.1335 26.0051 14.8529 26.0051 15.7404C26.0051 16.6278 26.7245 17.3472 27.6119 17.3472Z" fill="white"/>
<defs>
<linearGradient id="paint0_linear_488_1051" x1="2.30593" y1="37.7379" x2="43.7991" y2="37.7379" gradientUnits="userSpaceOnUse">
<stop offset="0.0339999" stop-color="#7E97FF"/>
<stop offset="0.909" stop-color="#C980FF"/>
</linearGradient>
</defs>
</svg>
