<svg width="44" height="44" viewBox="0 0 44 44" fill="none" xmlns="http://www.w3.org/2000/svg">
<circle cx="21.6332" cy="21.6332" r="21.6332" fill="url(#paint0_linear_488_1045)"/>
<path fill-rule="evenodd" clip-rule="evenodd" d="M10.9198 21.632C10.9198 17.6273 10.9198 15.625 11.7809 14.1335C12.345 13.1565 13.1564 12.3451 14.1334 11.781C15.6249 10.9199 17.6272 10.9199 21.6319 10.9199C25.6366 10.9199 27.6389 10.9199 29.1304 11.781C30.1074 12.3451 30.9188 13.1565 31.4829 14.1335C32.344 15.625 32.344 17.6273 32.344 21.632C32.344 25.6367 32.344 27.639 31.4829 29.1305C30.9188 30.1075 30.1074 30.9189 29.1304 31.483C27.6389 32.3441 25.6366 32.3441 21.6319 32.3441C17.6272 32.3441 15.6249 32.3441 14.1334 31.483C13.1564 30.9189 12.345 30.1075 11.7809 29.1305C10.9198 27.639 10.9198 25.6367 10.9198 21.632ZM22.7303 28.7021V22.0007C22.8651 21.7908 23.0428 21.6275 23.2635 21.5108C23.4841 21.3942 23.7537 21.3358 24.0723 21.3358C24.3726 21.3358 24.6269 21.3737 24.8353 21.4496C25.0436 21.5254 25.2029 21.6654 25.3132 21.8695C25.4235 22.0678 25.4787 22.3565 25.4787 22.7356V28.7021H28.5947V22.7443C28.5947 22.0561 28.5182 21.4787 28.365 21.0121C28.2179 20.5397 28.0034 20.1606 27.7215 19.8748C27.4458 19.589 27.1149 19.382 26.7288 19.2537C26.3489 19.1254 25.9291 19.0612 25.4695 19.0612C24.8935 19.0612 24.3695 19.1662 23.8977 19.3762C23.432 19.5803 23.0306 19.8807 22.6936 20.2773C22.6764 20.2975 22.6594 20.3179 22.6426 20.3386L22.5373 19.2362H19.6327V28.7021H22.7303ZM17.7759 19.2362V28.7021H14.669V19.2362H17.7759ZM16.2759 17.9898C17.2225 17.9898 17.9898 17.2224 17.9898 16.2759C17.9898 15.3293 17.2225 14.5619 16.2759 14.5619C15.3293 14.5619 14.5619 15.3293 14.5619 16.2759C14.5619 17.2224 15.3293 17.9898 16.2759 17.9898Z" fill="white"/>
<defs>
<linearGradient id="paint0_linear_488_1045" x1="1.77321" y1="37.7379" x2="43.2664" y2="37.7379" gradientUnits="userSpaceOnUse">
<stop offset="0.0339999" stop-color="#7E97FF"/>
<stop offset="0.909" stop-color="#C980FF"/>
</linearGradient>
</defs>
</svg>
