<svg width="44" height="44" viewBox="0 0 44 44" fill="none" xmlns="http://www.w3.org/2000/svg">
<circle cx="21.6332" cy="21.6332" r="21.6332" fill="url(#paint0_linear_493_1141)"/>
<path d="M12.248 14.0031C14.1635 14.0031 16.0789 14.0031 18.0524 14.0031C18.3604 14.6471 18.3604 14.6471 18.4941 14.9528C18.6279 15.2584 18.7654 15.5619 18.9082 15.8634C19.0493 16.1615 19.1846 16.4618 19.3177 16.7636C19.4341 17.0275 19.5537 17.2895 19.6771 17.5501C19.8182 17.8483 19.9536 18.1486 20.0866 18.4503C20.2031 18.7142 20.3227 18.9762 20.4461 19.2369C20.5783 19.5163 20.7058 19.7974 20.8305 20.0802C20.9559 20.3645 21.0839 20.6473 21.2166 20.9283C21.3415 21.193 21.4647 21.4584 21.5855 21.7251C21.5932 21.742 21.6008 21.7588 21.6086 21.7761C21.6397 21.8447 21.6707 21.9132 21.7018 21.9817C21.7834 22.1619 21.8657 22.3417 21.948 22.5215C22.1393 22.9391 22.3287 23.3574 22.5173 23.7762C22.5987 23.6005 22.6751 23.4238 22.7462 23.2437C22.7559 23.2193 22.7656 23.1949 22.7756 23.1698C22.7965 23.1171 22.8174 23.0644 22.8383 23.0117C22.8718 22.9271 22.9054 22.8425 22.939 22.7579C23.0109 22.5769 23.0827 22.396 23.1544 22.215C23.248 21.9791 23.3416 21.7432 23.4353 21.5074C23.4469 21.4782 23.4585 21.449 23.4705 21.4189C23.623 21.0353 23.7773 20.6526 23.9342 20.2708C24.1576 19.7275 24.3749 19.1819 24.5915 18.6359C24.7073 18.3441 24.8234 18.0525 24.9394 17.7608C24.9512 17.7313 24.9629 17.7018 24.975 17.6714C25.2616 16.9511 25.5508 16.2319 25.8404 15.5129C25.8494 15.4906 25.8583 15.4684 25.8675 15.4455C25.9106 15.3386 25.9536 15.2318 25.9967 15.1249C26.0747 14.9316 26.1524 14.7381 26.2295 14.5444C26.2366 14.5266 26.2436 14.5088 26.2509 14.4905C26.2838 14.4079 26.3166 14.3253 26.3494 14.2426C26.3606 14.2144 26.3718 14.1862 26.3833 14.1572C26.3931 14.1326 26.4028 14.1081 26.4128 14.0828C26.4364 14.0279 26.4364 14.0279 26.4612 14.0031C26.5324 14.0006 26.603 13.9998 26.6742 14.0001C26.6968 14.0001 26.7194 14 26.7427 14C26.8191 14 26.8955 14.0001 26.9718 14.0002C27.0263 14.0002 27.0808 14.0002 27.1353 14.0002C27.2838 14.0002 27.4322 14.0004 27.5807 14.0005C27.7357 14.0007 27.8906 14.0007 28.0456 14.0007C28.3059 14.0008 28.5661 14.001 28.8264 14.0012C29.0945 14.0014 29.3626 14.0016 29.6308 14.0017C29.6555 14.0017 29.6555 14.0017 29.6808 14.0017C29.7637 14.0017 29.8465 14.0018 29.9294 14.0018C30.6172 14.0021 31.3049 14.0025 31.9927 14.0031C31.9947 14.0588 31.9962 14.1145 31.9974 14.1702C31.9987 14.2168 31.9987 14.2168 32 14.2643C31.9903 14.3783 31.9535 14.4229 31.8692 14.4955C31.8517 14.509 31.8341 14.5225 31.816 14.5364C31.7794 14.5673 31.7429 14.5983 31.7065 14.6294C31.6787 14.6524 31.6787 14.6524 31.6504 14.6758C31.5653 14.7485 31.4877 14.8282 31.4098 14.9084C31.3264 14.9939 31.2421 15.0762 31.1517 15.1542C31.0465 15.2451 30.949 15.3425 30.8517 15.4417C30.7376 15.5581 30.6216 15.6692 30.4981 15.7756C30.4478 15.82 30.4025 15.8669 30.3587 15.9177C30.3381 15.9412 30.3381 15.9412 30.317 15.9653C30.2326 16.0759 30.2244 16.1678 30.2252 16.3048C30.2251 16.3344 30.2251 16.3344 30.2249 16.3645C30.2247 16.4309 30.2248 16.4973 30.2249 16.5637C30.2248 16.6116 30.2247 16.6596 30.2246 16.7075C30.2243 16.8395 30.2243 16.9716 30.2244 17.1036C30.2244 17.2459 30.2241 17.3881 30.2239 17.5304C30.2234 17.8093 30.2233 18.0882 30.2233 18.367C30.2233 18.5936 30.2232 18.8203 30.223 19.0469C30.2226 19.5845 30.2223 20.1222 30.2224 20.6598C30.2224 20.677 30.2224 20.6942 30.2224 20.7119C30.2224 20.7991 30.2224 20.8863 30.2224 20.9734C30.2224 20.9908 30.2224 21.0081 30.2224 21.0259C30.2224 21.0609 30.2224 21.0959 30.2224 21.1309C30.2224 21.6757 30.222 22.2204 30.2214 22.7651C30.2206 23.3769 30.2202 23.9887 30.2202 24.6005C30.2202 24.9245 30.2201 25.2485 30.2196 25.5725C30.2191 25.8484 30.219 26.1243 30.2193 26.4001C30.2195 26.5409 30.2195 26.6817 30.2191 26.8225C30.2187 26.9513 30.2188 27.0802 30.2192 27.2091C30.2193 27.2557 30.2192 27.3023 30.2189 27.349C30.2185 27.4124 30.2188 27.4757 30.2192 27.5391C30.219 27.5572 30.2187 27.5753 30.2185 27.594C30.2207 27.7556 30.276 27.8843 30.3859 28.0028C30.4055 28.019 30.4251 28.0352 30.4454 28.0518C30.5801 28.1671 30.7047 28.2897 30.8294 28.4156C30.8643 28.4507 30.8993 28.4858 30.9342 28.5208C30.9946 28.5815 31.0549 28.6423 31.1152 28.703C31.1876 28.7759 31.2599 28.8487 31.3324 28.9214C31.3772 28.9664 31.422 29.0115 31.4667 29.0567C31.6803 29.2715 31.6803 29.2715 31.9183 29.458C31.9679 29.5309 31.9679 29.5309 31.9679 29.8782C29.3731 29.8782 26.7782 29.8782 24.1048 29.8782C24.1048 29.5309 24.1048 29.5309 24.1846 29.4163C24.2191 29.3838 24.2546 29.3522 24.2908 29.3216C24.3081 29.3057 24.3253 29.2898 24.3431 29.2734C24.41 29.2123 24.4786 29.1535 24.5478 29.0951C24.7151 28.952 24.8679 28.7944 25.0225 28.6379C25.3488 28.3078 25.3488 28.3078 25.5023 28.177C25.5623 28.1257 25.6189 28.0715 25.6752 28.0162C25.6956 27.9965 25.716 27.9768 25.7369 27.9565C25.8394 27.8387 25.8752 27.7373 25.8751 27.5821C25.8752 27.5496 25.8754 27.5171 25.8755 27.4836C25.8753 27.4476 25.8751 27.4117 25.8749 27.3758C25.8749 27.3375 25.875 27.2992 25.8751 27.2609C25.8752 27.1558 25.8749 27.0506 25.8746 26.9455C25.8742 26.832 25.8743 26.7186 25.8744 26.6052C25.8744 26.4087 25.8742 26.2122 25.8738 26.0157C25.8732 25.7316 25.873 25.4476 25.8729 25.1635C25.8727 24.7026 25.8722 24.2417 25.8715 23.7807C25.8708 23.333 25.8703 22.8853 25.87 22.4375C25.87 22.3961 25.87 22.3961 25.8699 22.3539C25.8698 22.2155 25.8698 22.077 25.8697 21.9386C25.8689 20.79 25.8676 19.6413 25.8659 18.4927C25.8554 18.5201 25.8449 18.5475 25.8341 18.5757C25.7944 18.6791 25.7547 18.7825 25.7149 18.8859C25.6979 18.9304 25.6808 18.9748 25.6638 19.0192C25.5286 19.3714 25.3906 19.7223 25.2496 20.0722C25.1912 20.2171 25.133 20.3622 25.0749 20.5073C25.0637 20.5353 25.0524 20.5632 25.0409 20.5921C24.9434 20.8355 24.8482 21.0797 24.7542 21.3244C24.6641 21.5588 24.5723 21.7924 24.4799 22.0259C24.3212 22.4272 24.1633 22.8288 24.0055 23.2305C23.8458 23.6373 23.6859 24.0441 23.5252 24.4506C23.3789 24.8209 23.2333 25.1915 23.0878 25.5621C22.928 25.969 22.768 26.3759 22.6074 26.7824C22.474 27.12 22.3412 27.4578 22.2086 27.7956C22.0341 28.2399 21.8596 28.6842 21.6842 29.1282C21.6662 29.1739 21.6481 29.2197 21.6301 29.2654C21.6053 29.3281 21.5806 29.3908 21.5558 29.4535C21.5487 29.4715 21.5416 29.4895 21.5342 29.5081C21.5275 29.525 21.5209 29.5419 21.514 29.5593C21.5083 29.5737 21.5026 29.5881 21.4967 29.6029C21.4658 29.6785 21.4332 29.7535 21.401 29.8286C21.1964 29.8286 20.9918 29.8286 20.7809 29.8286C20.5517 29.3462 20.3248 28.8631 20.1047 28.3765C20.0971 28.3596 20.0895 28.3428 20.0816 28.3254C20.074 28.3085 20.0664 28.2917 20.0585 28.2743C19.9658 28.0695 19.8718 27.8654 19.7779 27.6612C19.6405 27.3627 19.5035 27.064 19.367 26.7652C19.231 26.4673 19.0946 26.1697 18.9578 25.8722C18.8127 25.5568 18.6681 25.2412 18.5239 24.9255C18.3961 24.6455 18.2678 24.3658 18.1392 24.0862C17.9942 23.7708 17.8496 23.4553 17.7054 23.1395C17.5775 22.8596 17.4492 22.5799 17.3206 22.3003C17.1756 21.9849 17.031 21.6693 16.8868 21.3536C16.7502 21.0544 16.613 20.7555 16.4756 20.4567C16.33 20.14 16.1848 19.8231 16.0402 19.506C15.9404 19.2874 15.8399 19.0691 15.7392 18.851C15.7253 18.821 15.7115 18.7909 15.6976 18.7608C15.664 18.688 15.6303 18.6152 15.5967 18.5423C15.5939 19.5449 15.5917 20.5474 15.5904 21.55C15.5902 21.6684 15.5901 21.7869 15.5899 21.9053C15.5899 21.9289 15.5898 21.9525 15.5898 21.9768C15.5893 22.3582 15.5883 22.7397 15.5871 23.1211C15.586 23.5127 15.5853 23.9044 15.585 24.296C15.5849 24.5375 15.5843 24.779 15.5833 25.0205C15.5827 25.1863 15.5825 25.352 15.5826 25.5178C15.5827 25.6133 15.5826 25.7089 15.5819 25.8044C15.5812 25.9082 15.5815 26.0121 15.5818 26.1159C15.5814 26.1458 15.5811 26.1756 15.5807 26.2064C15.5831 26.4823 15.658 26.733 15.8479 26.9372C15.872 26.9641 15.8962 26.9909 15.9202 27.0179C15.9324 27.0313 15.9446 27.0448 15.9572 27.0586C16.0175 27.1273 16.0728 27.1997 16.1285 27.2721C16.2339 27.408 16.3437 27.5393 16.4563 27.6694C16.5692 27.8 16.6786 27.9333 16.7873 28.0674C16.8616 28.1585 16.9361 28.2494 17.0106 28.3403C17.0235 28.3561 17.0365 28.3719 17.0499 28.3882C17.2109 28.5844 17.3725 28.78 17.5371 28.9734C17.6224 29.0739 17.7055 29.1758 17.7863 29.28C17.8265 29.3318 17.8265 29.3318 17.8689 29.3686C17.9036 29.4007 17.9036 29.4007 17.9532 29.4813C17.9532 29.5959 17.9532 29.7105 17.9532 29.8286C15.9886 29.8286 14.0241 29.8286 12 29.8286C12 29.43 12 29.43 12.1566 29.2689C12.1802 29.2425 12.1802 29.2425 12.2043 29.2156C12.2363 29.18 12.2685 29.1446 12.3011 29.1096C12.3676 29.0376 12.4302 28.9627 12.493 28.8875C12.5152 28.8613 12.5375 28.8351 12.5598 28.8089C12.6288 28.7269 12.6956 28.6433 12.7623 28.5593C12.8799 28.4125 13.0003 28.268 13.12 28.1229C13.1789 28.0516 13.2376 27.9802 13.2964 27.9089C13.3252 27.8739 13.3539 27.839 13.3827 27.8041C13.456 27.7151 13.5293 27.626 13.6025 27.5368C13.6321 27.5008 13.6618 27.4647 13.6914 27.4287C13.7058 27.4112 13.7201 27.3936 13.7349 27.3756C13.8016 27.2945 13.8687 27.2139 13.9376 27.1346C14.1821 26.8528 14.3597 26.6006 14.3595 26.2158C14.3595 26.1998 14.3595 26.1838 14.3595 26.1673C14.3596 26.1138 14.3595 26.0602 14.3593 26.0066C14.3593 25.9678 14.3593 25.9289 14.3594 25.8901C14.3594 25.7835 14.3592 25.6768 14.3591 25.5701C14.3589 25.4551 14.3589 25.3401 14.3588 25.225C14.3587 24.9472 14.3584 24.6695 14.3579 24.3917C14.3578 24.3132 14.3577 24.2348 14.3576 24.1563C14.3569 23.669 14.3562 23.1817 14.3552 22.6944C14.355 22.5816 14.3548 22.4687 14.3545 22.3559C14.3545 22.3279 14.3544 22.2998 14.3544 22.271C14.3535 21.8166 14.3531 21.3622 14.3529 20.9078C14.3528 20.4412 14.3521 19.9746 14.351 19.508C14.3504 19.246 14.35 18.9841 14.3501 18.7221C14.3502 18.4991 14.3499 18.2761 14.349 18.053C14.3486 17.9393 14.3484 17.8255 14.3487 17.7117C14.349 17.6075 14.3487 17.5033 14.3479 17.399C14.3478 17.3614 14.3478 17.3238 14.3481 17.2862C14.3501 16.9729 14.2765 16.7657 14.065 16.5347C14.0385 16.5048 14.0121 16.4749 13.9856 16.445C13.9728 16.4305 13.9599 16.416 13.9466 16.4011C13.895 16.3425 13.8459 16.2822 13.7968 16.2215C13.7158 16.1218 13.6335 16.0233 13.5503 15.9254C13.448 15.8051 13.3475 15.6834 13.2478 15.5608C13.1852 15.4847 13.1213 15.4097 13.0573 15.3348C12.9635 15.2247 12.873 15.1127 12.7845 14.9983C12.6711 14.8521 12.552 14.7118 12.4298 14.5729C12.4169 14.5582 12.404 14.5435 12.3907 14.5284C12.3793 14.5156 12.3679 14.5027 12.3562 14.4895C12.1981 14.3024 12.248 14.329 12.248 14.0031Z" fill="white"/>
<defs>
<linearGradient id="paint0_linear_493_1141" x1="1.77321" y1="37.7379" x2="43.2664" y2="37.7379" gradientUnits="userSpaceOnUse">
<stop offset="0.0339999" stop-color="#7E97FF"/>
<stop offset="0.909" stop-color="#C980FF"/>
</linearGradient>
</defs>
</svg>
