<svg width="90" height="101" viewBox="0 0 90 101" fill="none" xmlns="http://www.w3.org/2000/svg">
<path d="M89.5156 50.5485C89.5156 56.9454 89.4966 63.3422 89.522 69.739C89.5378 74.0343 87.7029 77.2851 84.0204 79.4216C72.7759 85.9422 61.522 92.4374 50.2394 98.8914C46.8648 100.822 43.3442 100.828 39.9696 98.8977C28.687 92.447 17.4331 85.9454 6.18864 79.4279C2.50293 77.2914 0.664832 74.0501 0.671181 69.7517C0.687054 57.0121 0.696579 44.2692 0.668007 31.5295C0.658483 27.2374 2.42356 23.9486 6.1061 21.8089C17.4363 15.2279 28.7823 8.67554 40.1664 2.18983C43.3728 0.364429 46.8045 0.354904 50.0109 2.18348C61.395 8.66601 72.741 15.2216 84.0712 21.8025C87.7537 23.9422 89.5474 27.2216 89.522 31.5168C89.4902 37.8597 89.5156 44.2057 89.5156 50.5485ZM5.43626 50.612C5.43626 56.9581 5.47436 63.3041 5.42039 69.647C5.39816 72.3009 6.49975 74.1422 8.78864 75.4533C19.6077 81.6565 30.4267 87.8628 41.1855 94.1676C43.9093 95.7644 46.3156 95.7422 49.0331 94.1517C59.795 87.847 70.6109 81.6406 81.4299 75.4374C83.7283 74.12 84.7791 72.2501 84.7728 69.612C84.7379 56.9232 84.7347 44.2311 84.7759 31.5422C84.7855 28.9549 83.7728 27.1073 81.5378 25.8216C70.541 19.5009 59.5505 13.1771 48.5855 6.80252C46.1886 5.40887 43.9728 5.42792 41.5855 6.81839C30.668 13.1676 19.7251 19.4724 8.76959 25.7581C6.48388 27.0692 5.39499 28.9136 5.42039 31.5771C5.4807 37.92 5.43626 44.266 5.43626 50.612Z" fill="#7733AA"/>
<path d="M72.0608 33.2411C72.0608 34.2887 72.0608 35.0189 72.0608 35.749C72.0608 46.9014 72.0608 58.0538 72.0576 69.2094C72.0576 69.7363 72.0989 70.2792 72.0005 70.7903C71.7592 72.0316 70.9497 72.7649 69.6957 72.7744C68.4386 72.784 67.6259 72.0506 67.3656 70.8189C67.2576 70.3109 67.3053 69.7649 67.3053 69.2379C67.3021 56.8157 67.283 44.3935 67.3338 31.9744C67.337 30.803 66.9592 30.2062 65.9656 29.6443C59.864 26.1935 53.8037 22.6729 47.7402 19.184C47.2672 19.6538 47.4545 20.1554 47.4545 20.603C47.4418 29.3236 47.4672 38.0474 47.4195 46.7681C47.4132 47.9078 47.6227 48.3363 48.8703 48.2824C51.4037 48.1744 53.9434 48.2284 56.4799 48.257C58.3338 48.2792 59.3973 49.2062 59.3497 50.676C59.3053 52.0728 58.2672 52.9268 56.483 52.9427C53.9465 52.9681 51.4068 53.0252 48.8735 52.9173C47.6322 52.8665 47.4132 53.2824 47.4195 54.4284C47.464 64.6284 47.4481 74.8316 47.4449 85.0316C47.4449 87.5522 46.7688 88.6125 45.1529 88.6506C43.4767 88.6887 42.7434 87.5808 42.7434 84.9903C42.7434 62.0506 42.7434 39.1109 42.7434 16.1681C42.7434 15.4316 42.6481 14.6728 42.9402 13.9713C43.5402 12.5427 45.0576 12.1649 46.6799 13.0919C52.1846 16.2348 57.6735 19.403 63.1688 22.5649C68.1592 25.4379 73.1434 28.3205 78.1402 31.184C79.0989 31.7332 79.9084 32.3744 79.9656 33.5808C80.0481 35.3363 78.1719 36.4982 76.4957 35.6792C75.0862 34.984 73.7402 34.1681 72.0608 33.2411Z" fill="#7733AA"/>
<path d="M29.2328 62.339C29.2328 61.8374 29.2328 61.339 29.2328 60.8374C29.2328 49.7929 29.2328 38.7485 29.2359 27.704C29.2359 26.9199 29.1629 26.139 29.7153 25.4374C30.3915 24.5771 31.2359 24.3263 32.2391 24.5675C33.2042 24.7993 33.7439 25.4945 33.9407 26.4405C34.0137 26.7993 33.9915 27.1771 33.9915 27.5453C33.9947 42.8691 33.9915 58.1961 33.9979 73.5199C33.9979 74.7961 33.8518 75.9993 32.4994 76.5548C31.128 77.1167 30.0042 76.5136 29.274 74.8659C25.5375 66.4215 21.8137 57.9707 18.0804 49.5231C17.6645 48.5834 17.2233 47.6532 16.5439 46.7707C16.5439 50.0152 16.5439 53.2628 16.5439 56.5072C16.5439 59.6247 16.5534 62.7421 16.5407 65.8596C16.5312 67.7104 15.6423 68.7834 14.1725 68.7866C12.6963 68.7898 11.7947 67.7199 11.7915 65.8723C11.782 55.7263 11.7883 45.5802 11.7852 35.4342C11.7852 34.0755 12.0518 32.8723 13.5947 32.4977C15.0677 32.1421 15.9026 32.6818 16.6963 34.4882C20.5852 43.3326 24.4613 52.1834 28.3471 61.031C28.5471 61.4882 28.7693 61.939 28.982 62.3898C29.0613 62.3771 29.1471 62.358 29.2328 62.339Z" fill="#7733AA"/>
</svg>
