<svg width="96" height="96" viewBox="0 0 96 96" fill="none" xmlns="http://www.w3.org/2000/svg">
<g filter="url(#filter0_i_1922_6128)">
<path d="M82.4149 64.9647L52.2563 47.9998L82.4149 31.035C82.8764 30.7533 83.2106 30.3035 83.3471 29.7804C83.4836 29.2572 83.4117 28.7015 83.1466 28.2303C82.8815 27.7591 82.4439 27.4091 81.9259 27.2541C81.4079 27.0992 80.85 27.1513 80.3697 27.3995L50.0879 44.4332V10.4346C50.0879 9.88112 49.8681 9.35029 49.4767 8.95891C49.0853 8.56753 48.5545 8.34766 48.001 8.34766C47.4475 8.34766 46.9167 8.56753 46.5253 8.95891C46.1339 9.35029 45.914 9.88112 45.914 10.4346V44.4332L15.6323 27.3995C15.1519 27.1513 14.594 27.0992 14.076 27.2541C13.5581 27.4091 13.1204 27.7591 12.8553 28.2303C12.5902 28.7015 12.5184 29.2572 12.6549 29.7804C12.7913 30.3035 13.1255 30.7533 13.5871 31.035L43.7457 47.9998L13.5871 64.9647C13.1856 65.1912 12.8703 65.5442 12.6906 65.9687C12.5108 66.3932 12.4767 66.8652 12.5935 67.3112C12.7103 67.7571 12.9714 68.1518 13.3362 68.4337C13.7009 68.7156 14.1487 68.8688 14.6097 68.8694C14.9675 68.8699 15.3192 68.7771 15.6302 68.6002L45.914 51.5664V85.565C45.914 86.1185 46.1339 86.6494 46.5253 87.0407C46.9167 87.4321 47.4475 87.652 48.001 87.652C48.5545 87.652 49.0853 87.4321 49.4767 87.0407C49.8681 86.6494 50.0879 86.1185 50.0879 85.565V51.5664L80.3697 68.6002C80.6813 68.7775 81.0338 68.8703 81.3923 68.8694C81.8534 68.8693 82.3016 68.7164 82.6667 68.4347C83.0317 68.1529 83.2932 67.7582 83.4103 67.3122C83.5274 66.8661 83.4934 66.3939 83.3137 65.9692C83.134 65.5445 82.8166 65.1913 82.4149 64.9647Z" fill="url(#paint0_linear_1922_6128)"/>
</g>
<g filter="url(#filter1_bi_1922_6128)">
<path d="M48.0002 58.435C45.9364 58.435 43.919 57.823 42.203 56.6764C40.487 55.5298 39.1495 53.9001 38.3597 51.9934C37.57 50.0867 37.3633 47.9886 37.7659 45.9645C38.1686 43.9403 39.1624 42.081 40.6217 40.6217C42.081 39.1624 43.9403 38.1686 45.9645 37.7659C47.9886 37.3633 50.0867 37.57 51.9934 38.3597C53.9001 39.1495 55.5298 40.487 56.6764 42.203C57.823 43.919 58.435 45.9364 58.435 48.0002C58.4317 50.7667 57.3312 53.4189 55.3751 55.3751C53.4189 57.3312 50.7667 58.4317 48.0002 58.435Z" fill="#F1F1F1" fill-opacity="0.1"/>
<path d="M48.0002 58.435C45.9364 58.435 43.919 57.823 42.203 56.6764C40.487 55.5298 39.1495 53.9001 38.3597 51.9934C37.57 50.0867 37.3633 47.9886 37.7659 45.9645C38.1686 43.9403 39.1624 42.081 40.6217 40.6217C42.081 39.1624 43.9403 38.1686 45.9645 37.7659C47.9886 37.3633 50.0867 37.57 51.9934 38.3597C53.9001 39.1495 55.5298 40.487 56.6764 42.203C57.823 43.919 58.435 45.9364 58.435 48.0002C58.4317 50.7667 57.3312 53.4189 55.3751 55.3751C53.4189 57.3312 50.7667 58.4317 48.0002 58.435Z" fill="url(#paint1_linear_1922_6128)" fill-opacity="0.2"/>
<path d="M47.9995 57.835C46.0546 57.8349 44.1534 57.2581 42.5363 56.1775C40.919 55.0969 39.6584 53.5609 38.9141 51.7638C38.1697 49.9668 37.9749 47.9893 38.3544 46.0815C38.7339 44.1738 39.6706 42.4214 41.046 41.046C42.4214 39.6706 44.1738 38.7339 46.0815 38.3544C47.9893 37.9749 49.9668 38.1697 51.7638 38.9141C53.5609 39.6584 55.0969 40.919 56.1775 42.5363C57.2581 44.1534 57.8349 46.0546 57.835 47.9995C57.8319 50.6071 56.7946 53.107 54.9508 54.9508C53.107 56.7946 50.6071 57.8319 47.9995 57.835Z" stroke="url(#paint2_linear_1922_6128)" stroke-opacity="0.1" stroke-width="1.2"/>
</g>
<g filter="url(#filter2_bi_1922_6128)">
<path d="M81.3918 39.6528C87.1548 39.6528 91.8266 34.981 91.8266 29.218C91.8266 23.455 87.1548 18.7832 81.3918 18.7832C75.6288 18.7832 70.957 23.455 70.957 29.218C70.957 34.981 75.6288 39.6528 81.3918 39.6528Z" fill="#F1F1F1" fill-opacity="0.1"/>
<path d="M81.3918 39.6528C87.1548 39.6528 91.8266 34.981 91.8266 29.218C91.8266 23.455 87.1548 18.7832 81.3918 18.7832C75.6288 18.7832 70.957 23.455 70.957 29.218C70.957 34.981 75.6288 39.6528 81.3918 39.6528Z" fill="url(#paint3_linear_1922_6128)" fill-opacity="0.2"/>
<path d="M91.2266 29.218C91.2266 34.6496 86.8234 39.0528 81.3918 39.0528C75.9602 39.0528 71.557 34.6496 71.557 29.218C71.557 23.7864 75.9602 19.3832 81.3918 19.3832C86.8234 19.3832 91.2266 23.7864 91.2266 29.218Z" stroke="url(#paint4_linear_1922_6128)" stroke-opacity="0.1" stroke-width="1.2"/>
</g>
<g filter="url(#filter3_i_1922_6128)">
<path d="M81.3916 68.87C80.8381 68.87 80.3073 68.6501 79.9159 68.2587C79.5246 67.8674 79.3047 67.3365 79.3047 66.783V29.2178C79.3047 28.6643 79.5246 28.1335 79.9159 27.7421C80.3073 27.3507 80.8381 27.1309 81.3916 27.1309C81.9451 27.1309 82.476 27.3507 82.8673 27.7421C83.2587 28.1335 83.4786 28.6643 83.4786 29.2178V66.783C83.4786 67.3365 83.2587 67.8674 82.8673 68.2587C82.476 68.6501 81.9451 68.87 81.3916 68.87Z" fill="url(#paint5_linear_1922_6128)"/>
</g>
<g filter="url(#filter4_bi_1922_6128)">
<path d="M81.3918 77.2172C87.1548 77.2172 91.8266 72.5454 91.8266 66.7824C91.8266 61.0195 87.1548 56.3477 81.3918 56.3477C75.6288 56.3477 70.957 61.0195 70.957 66.7824C70.957 72.5454 75.6288 77.2172 81.3918 77.2172Z" fill="#F1F1F1" fill-opacity="0.1"/>
<path d="M81.3918 77.2172C87.1548 77.2172 91.8266 72.5454 91.8266 66.7824C91.8266 61.0195 87.1548 56.3477 81.3918 56.3477C75.6288 56.3477 70.957 61.0195 70.957 66.7824C70.957 72.5454 75.6288 77.2172 81.3918 77.2172Z" fill="url(#paint6_linear_1922_6128)" fill-opacity="0.2"/>
<path d="M91.2266 66.7824C91.2266 72.214 86.8234 76.6172 81.3918 76.6172C75.9602 76.6172 71.557 72.214 71.557 66.7824C71.557 61.3508 75.9602 56.9477 81.3918 56.9477C86.8234 56.9477 91.2266 61.3508 91.2266 66.7824Z" stroke="url(#paint7_linear_1922_6128)" stroke-opacity="0.1" stroke-width="1.2"/>
</g>
<g filter="url(#filter5_i_1922_6128)">
<path d="M47.9995 87.6526C47.5383 87.6525 47.0902 87.4996 46.7251 87.2179C46.36 86.9362 46.0985 86.5415 45.9814 86.0954C45.8644 85.6494 45.8984 85.1771 46.0781 84.7524C46.2578 84.3277 46.5731 83.9745 46.9748 83.7479L80.3661 64.9653C80.8464 64.7171 81.4043 64.665 81.9223 64.82C82.4403 64.975 82.8779 65.3249 83.143 65.7961C83.4081 66.2674 83.48 66.8231 83.3435 67.3462C83.207 67.8694 82.8728 68.3192 82.4113 68.6008L49.02 87.3834C48.709 87.5604 48.3572 87.6531 47.9995 87.6526Z" fill="url(#paint8_linear_1922_6128)"/>
</g>
<g filter="url(#filter6_bi_1922_6128)">
<path d="M48.0002 96.0004C53.7632 96.0004 58.435 91.3286 58.435 85.5656C58.435 79.8027 53.7632 75.1309 48.0002 75.1309C42.2372 75.1309 37.5654 79.8027 37.5654 85.5656C37.5654 91.3286 42.2372 96.0004 48.0002 96.0004Z" fill="#F1F1F1" fill-opacity="0.1"/>
<path d="M48.0002 96.0004C53.7632 96.0004 58.435 91.3286 58.435 85.5656C58.435 79.8027 53.7632 75.1309 48.0002 75.1309C42.2372 75.1309 37.5654 79.8027 37.5654 85.5656C37.5654 91.3286 42.2372 96.0004 48.0002 96.0004Z" fill="url(#paint9_linear_1922_6128)" fill-opacity="0.2"/>
<path d="M57.835 85.5656C57.835 90.9972 53.4318 95.4004 48.0002 95.4004C42.5686 95.4004 38.1654 90.9972 38.1654 85.5656C38.1654 80.134 42.5686 75.7309 48.0002 75.7309C53.4318 75.7309 57.835 80.134 57.835 85.5656Z" stroke="url(#paint10_linear_1922_6128)" stroke-opacity="0.1" stroke-width="1.2"/>
</g>
<g filter="url(#filter7_i_1922_6128)">
<path d="M47.9986 87.6526C47.6408 87.6531 47.289 87.5604 46.978 87.3834L13.5867 68.6008C13.1252 68.3192 12.791 67.8694 12.6545 67.3462C12.518 66.8231 12.5899 66.2674 12.855 65.7961C13.1201 65.3249 13.5577 64.975 14.0757 64.82C14.5937 64.665 15.1516 64.7171 15.6319 64.9653L49.0232 83.7479C49.4249 83.9745 49.7402 84.3277 49.9199 84.7524C50.0996 85.1771 50.1336 85.6494 50.0166 86.0954C49.8995 86.5415 49.638 86.9362 49.2729 87.2179C48.9078 87.4996 48.4597 87.6525 47.9986 87.6526Z" fill="url(#paint11_linear_1922_6128)"/>
</g>
<g filter="url(#filter8_bi_1922_6128)">
<path d="M14.6086 77.2172C20.3716 77.2172 25.0434 72.5454 25.0434 66.7824C25.0434 61.0195 20.3716 56.3477 14.6086 56.3477C8.84564 56.3477 4.17383 61.0195 4.17383 66.7824C4.17383 72.5454 8.84564 77.2172 14.6086 77.2172Z" fill="#F1F1F1" fill-opacity="0.1"/>
<path d="M14.6086 77.2172C20.3716 77.2172 25.0434 72.5454 25.0434 66.7824C25.0434 61.0195 20.3716 56.3477 14.6086 56.3477C8.84564 56.3477 4.17383 61.0195 4.17383 66.7824C4.17383 72.5454 8.84564 77.2172 14.6086 77.2172Z" fill="url(#paint12_linear_1922_6128)" fill-opacity="0.2"/>
<path d="M24.4434 66.7824C24.4434 72.214 20.0402 76.6172 14.6086 76.6172C9.17701 76.6172 4.77383 72.214 4.77383 66.7824C4.77383 61.3508 9.17701 56.9477 14.6086 56.9477C20.0402 56.9477 24.4434 61.3508 24.4434 66.7824Z" stroke="url(#paint13_linear_1922_6128)" stroke-opacity="0.1" stroke-width="1.2"/>
</g>
<g filter="url(#filter9_i_1922_6128)">
<path d="M14.6084 68.87C14.0549 68.87 13.5241 68.6501 13.1327 68.2587C12.7414 67.8674 12.5215 67.3365 12.5215 66.783V29.2178C12.5215 28.6643 12.7414 28.1335 13.1327 27.7421C13.5241 27.3507 14.0549 27.1309 14.6084 27.1309C15.1619 27.1309 15.6928 27.3507 16.0841 27.7421C16.4755 28.1335 16.6954 28.6643 16.6954 29.2178V66.783C16.6954 67.3365 16.4755 67.8674 16.0841 68.2587C15.6928 68.6501 15.1619 68.87 14.6084 68.87Z" fill="url(#paint14_linear_1922_6128)"/>
</g>
<g filter="url(#filter10_bi_1922_6128)">
<path d="M14.6086 39.6528C20.3716 39.6528 25.0434 34.981 25.0434 29.218C25.0434 23.455 20.3716 18.7832 14.6086 18.7832C8.84564 18.7832 4.17383 23.455 4.17383 29.218C4.17383 34.981 8.84564 39.6528 14.6086 39.6528Z" fill="#F1F1F1" fill-opacity="0.1"/>
<path d="M14.6086 39.6528C20.3716 39.6528 25.0434 34.981 25.0434 29.218C25.0434 23.455 20.3716 18.7832 14.6086 18.7832C8.84564 18.7832 4.17383 23.455 4.17383 29.218C4.17383 34.981 8.84564 39.6528 14.6086 39.6528Z" fill="url(#paint15_linear_1922_6128)" fill-opacity="0.2"/>
<path d="M24.4434 29.218C24.4434 34.6496 20.0402 39.0528 14.6086 39.0528C9.17701 39.0528 4.77383 34.6496 4.77383 29.218C4.77383 23.7864 9.17701 19.3832 14.6086 19.3832C20.0402 19.3832 24.4434 23.7864 24.4434 29.218Z" stroke="url(#paint16_linear_1922_6128)" stroke-opacity="0.1" stroke-width="1.2"/>
</g>
<g filter="url(#filter11_i_1922_6128)">
<path d="M14.6079 31.3034C14.1467 31.3032 13.6986 31.1504 13.3335 30.8686C12.9684 30.5869 12.7069 30.1922 12.5898 29.7462C12.4728 29.3001 12.5068 28.8278 12.6865 28.4031C12.8662 27.9785 13.1815 27.6252 13.5832 27.3987L46.9745 8.61607C47.2137 8.47006 47.4799 8.37374 47.7572 8.33286C48.0345 8.29198 48.3172 8.30738 48.5885 8.37814C48.8597 8.4489 49.1139 8.57357 49.3358 8.74471C49.5578 8.91585 49.7431 9.12996 49.8805 9.37425C50.0179 9.61854 50.1047 9.88802 50.1357 10.1666C50.1668 10.4452 50.1413 10.7271 50.061 10.9957C49.9807 11.2642 49.8471 11.5138 49.6681 11.7296C49.4892 11.9454 49.2687 12.1229 49.0197 12.2515L15.6284 31.0342C15.3174 31.2111 14.9656 31.3039 14.6079 31.3034Z" fill="url(#paint17_linear_1922_6128)"/>
</g>
<g filter="url(#filter12_bi_1922_6128)">
<path d="M48.0002 20.8696C53.7632 20.8696 58.435 16.1978 58.435 10.4348C58.435 4.67181 53.7632 0 48.0002 0C42.2372 0 37.5654 4.67181 37.5654 10.4348C37.5654 16.1978 42.2372 20.8696 48.0002 20.8696Z" fill="#F1F1F1" fill-opacity="0.1"/>
<path d="M48.0002 20.8696C53.7632 20.8696 58.435 16.1978 58.435 10.4348C58.435 4.67181 53.7632 0 48.0002 0C42.2372 0 37.5654 4.67181 37.5654 10.4348C37.5654 16.1978 42.2372 20.8696 48.0002 20.8696Z" fill="url(#paint18_linear_1922_6128)" fill-opacity="0.2"/>
<path d="M57.835 10.4348C57.835 15.8664 53.4318 20.2696 48.0002 20.2696C42.5686 20.2696 38.1654 15.8664 38.1654 10.4348C38.1654 5.00318 42.5686 0.6 48.0002 0.6C53.4318 0.6 57.835 5.00318 57.835 10.4348Z" stroke="url(#paint19_linear_1922_6128)" stroke-opacity="0.1" stroke-width="1.2"/>
</g>
<g filter="url(#filter13_i_1922_6128)">
<path d="M73.5432 22.4104L49.0235 8.61768C48.5432 8.36947 47.9853 8.31736 47.4673 8.47233C46.9493 8.6273 46.5117 8.97725 46.2466 9.44847C45.9815 9.9197 45.9096 10.4754 46.0461 10.9986C46.1826 11.5217 46.5168 11.9715 46.9783 12.2532L71.5001 26.0479C71.9269 24.7092 72.6221 23.4715 73.5432 22.4104Z" fill="url(#paint20_linear_1922_6128)"/>
</g>
<defs>
<filter id="filter0_i_1922_6128" x="12.5254" y="8.34766" width="70.9531" height="87.3047" filterUnits="userSpaceOnUse" color-interpolation-filters="sRGB">
<feFlood flood-opacity="0" result="BackgroundImageFix"/>
<feBlend mode="normal" in="SourceGraphic" in2="BackgroundImageFix" result="shape"/>
<feColorMatrix in="SourceAlpha" type="matrix" values="0 0 0 0 0 0 0 0 0 0 0 0 0 0 0 0 0 0 127 0" result="hardAlpha"/>
<feOffset dy="8"/>
<feGaussianBlur stdDeviation="4"/>
<feComposite in2="hardAlpha" operator="arithmetic" k2="-1" k3="1"/>
<feColorMatrix type="matrix" values="0 0 0 0 1 0 0 0 0 1 0 0 0 0 1 0 0 0 0.4 0"/>
<feBlend mode="normal" in2="shape" result="effect1_innerShadow_1922_6128"/>
</filter>
<filter id="filter1_bi_1922_6128" x="13.5654" y="13.5654" width="68.8691" height="68.8691" filterUnits="userSpaceOnUse" color-interpolation-filters="sRGB">
<feFlood flood-opacity="0" result="BackgroundImageFix"/>
<feGaussianBlur in="BackgroundImageFix" stdDeviation="12"/>
<feComposite in2="SourceAlpha" operator="in" result="effect1_backgroundBlur_1922_6128"/>
<feBlend mode="normal" in="SourceGraphic" in2="effect1_backgroundBlur_1922_6128" result="shape"/>
<feColorMatrix in="SourceAlpha" type="matrix" values="0 0 0 0 0 0 0 0 0 0 0 0 0 0 0 0 0 0 127 0" result="hardAlpha"/>
<feOffset dy="8"/>
<feGaussianBlur stdDeviation="6"/>
<feComposite in2="hardAlpha" operator="arithmetic" k2="-1" k3="1"/>
<feColorMatrix type="matrix" values="0 0 0 0 1 0 0 0 0 1 0 0 0 0 1 0 0 0 0.4 0"/>
<feBlend mode="normal" in2="shape" result="effect2_innerShadow_1922_6128"/>
</filter>
<filter id="filter2_bi_1922_6128" x="46.957" y="-5.2168" width="68.8691" height="68.8691" filterUnits="userSpaceOnUse" color-interpolation-filters="sRGB">
<feFlood flood-opacity="0" result="BackgroundImageFix"/>
<feGaussianBlur in="BackgroundImageFix" stdDeviation="12"/>
<feComposite in2="SourceAlpha" operator="in" result="effect1_backgroundBlur_1922_6128"/>
<feBlend mode="normal" in="SourceGraphic" in2="effect1_backgroundBlur_1922_6128" result="shape"/>
<feColorMatrix in="SourceAlpha" type="matrix" values="0 0 0 0 0 0 0 0 0 0 0 0 0 0 0 0 0 0 127 0" result="hardAlpha"/>
<feOffset dy="8"/>
<feGaussianBlur stdDeviation="6"/>
<feComposite in2="hardAlpha" operator="arithmetic" k2="-1" k3="1"/>
<feColorMatrix type="matrix" values="0 0 0 0 1 0 0 0 0 1 0 0 0 0 1 0 0 0 0.4 0"/>
<feBlend mode="normal" in2="shape" result="effect2_innerShadow_1922_6128"/>
</filter>
<filter id="filter3_i_1922_6128" x="79.3047" y="27.1309" width="4.17383" height="49.7393" filterUnits="userSpaceOnUse" color-interpolation-filters="sRGB">
<feFlood flood-opacity="0" result="BackgroundImageFix"/>
<feBlend mode="normal" in="SourceGraphic" in2="BackgroundImageFix" result="shape"/>
<feColorMatrix in="SourceAlpha" type="matrix" values="0 0 0 0 0 0 0 0 0 0 0 0 0 0 0 0 0 0 127 0" result="hardAlpha"/>
<feOffset dy="8"/>
<feGaussianBlur stdDeviation="4"/>
<feComposite in2="hardAlpha" operator="arithmetic" k2="-1" k3="1"/>
<feColorMatrix type="matrix" values="0 0 0 0 1 0 0 0 0 1 0 0 0 0 1 0 0 0 0.4 0"/>
<feBlend mode="normal" in2="shape" result="effect1_innerShadow_1922_6128"/>
</filter>
<filter id="filter4_bi_1922_6128" x="46.957" y="32.3477" width="68.8691" height="68.8691" filterUnits="userSpaceOnUse" color-interpolation-filters="sRGB">
<feFlood flood-opacity="0" result="BackgroundImageFix"/>
<feGaussianBlur in="BackgroundImageFix" stdDeviation="12"/>
<feComposite in2="SourceAlpha" operator="in" result="effect1_backgroundBlur_1922_6128"/>
<feBlend mode="normal" in="SourceGraphic" in2="effect1_backgroundBlur_1922_6128" result="shape"/>
<feColorMatrix in="SourceAlpha" type="matrix" values="0 0 0 0 0 0 0 0 0 0 0 0 0 0 0 0 0 0 127 0" result="hardAlpha"/>
<feOffset dy="8"/>
<feGaussianBlur stdDeviation="6"/>
<feComposite in2="hardAlpha" operator="arithmetic" k2="-1" k3="1"/>
<feColorMatrix type="matrix" values="0 0 0 0 1 0 0 0 0 1 0 0 0 0 1 0 0 0 0.4 0"/>
<feBlend mode="normal" in2="shape" result="effect2_innerShadow_1922_6128"/>
</filter>
<filter id="filter5_i_1922_6128" x="45.9131" y="64.7324" width="37.498" height="30.9199" filterUnits="userSpaceOnUse" color-interpolation-filters="sRGB">
<feFlood flood-opacity="0" result="BackgroundImageFix"/>
<feBlend mode="normal" in="SourceGraphic" in2="BackgroundImageFix" result="shape"/>
<feColorMatrix in="SourceAlpha" type="matrix" values="0 0 0 0 0 0 0 0 0 0 0 0 0 0 0 0 0 0 127 0" result="hardAlpha"/>
<feOffset dy="8"/>
<feGaussianBlur stdDeviation="4"/>
<feComposite in2="hardAlpha" operator="arithmetic" k2="-1" k3="1"/>
<feColorMatrix type="matrix" values="0 0 0 0 1 0 0 0 0 1 0 0 0 0 1 0 0 0 0.4 0"/>
<feBlend mode="normal" in2="shape" result="effect1_innerShadow_1922_6128"/>
</filter>
<filter id="filter6_bi_1922_6128" x="13.5654" y="51.1309" width="68.8691" height="68.8691" filterUnits="userSpaceOnUse" color-interpolation-filters="sRGB">
<feFlood flood-opacity="0" result="BackgroundImageFix"/>
<feGaussianBlur in="BackgroundImageFix" stdDeviation="12"/>
<feComposite in2="SourceAlpha" operator="in" result="effect1_backgroundBlur_1922_6128"/>
<feBlend mode="normal" in="SourceGraphic" in2="effect1_backgroundBlur_1922_6128" result="shape"/>
<feColorMatrix in="SourceAlpha" type="matrix" values="0 0 0 0 0 0 0 0 0 0 0 0 0 0 0 0 0 0 127 0" result="hardAlpha"/>
<feOffset dy="8"/>
<feGaussianBlur stdDeviation="6"/>
<feComposite in2="hardAlpha" operator="arithmetic" k2="-1" k3="1"/>
<feColorMatrix type="matrix" values="0 0 0 0 1 0 0 0 0 1 0 0 0 0 1 0 0 0 0.4 0"/>
<feBlend mode="normal" in2="shape" result="effect2_innerShadow_1922_6128"/>
</filter>
<filter id="filter7_i_1922_6128" x="12.5869" y="64.7324" width="37.498" height="30.9199" filterUnits="userSpaceOnUse" color-interpolation-filters="sRGB">
<feFlood flood-opacity="0" result="BackgroundImageFix"/>
<feBlend mode="normal" in="SourceGraphic" in2="BackgroundImageFix" result="shape"/>
<feColorMatrix in="SourceAlpha" type="matrix" values="0 0 0 0 0 0 0 0 0 0 0 0 0 0 0 0 0 0 127 0" result="hardAlpha"/>
<feOffset dy="8"/>
<feGaussianBlur stdDeviation="4"/>
<feComposite in2="hardAlpha" operator="arithmetic" k2="-1" k3="1"/>
<feColorMatrix type="matrix" values="0 0 0 0 1 0 0 0 0 1 0 0 0 0 1 0 0 0 0.4 0"/>
<feBlend mode="normal" in2="shape" result="effect1_innerShadow_1922_6128"/>
</filter>
<filter id="filter8_bi_1922_6128" x="-19.8262" y="32.3477" width="68.8691" height="68.8691" filterUnits="userSpaceOnUse" color-interpolation-filters="sRGB">
<feFlood flood-opacity="0" result="BackgroundImageFix"/>
<feGaussianBlur in="BackgroundImageFix" stdDeviation="12"/>
<feComposite in2="SourceAlpha" operator="in" result="effect1_backgroundBlur_1922_6128"/>
<feBlend mode="normal" in="SourceGraphic" in2="effect1_backgroundBlur_1922_6128" result="shape"/>
<feColorMatrix in="SourceAlpha" type="matrix" values="0 0 0 0 0 0 0 0 0 0 0 0 0 0 0 0 0 0 127 0" result="hardAlpha"/>
<feOffset dy="8"/>
<feGaussianBlur stdDeviation="6"/>
<feComposite in2="hardAlpha" operator="arithmetic" k2="-1" k3="1"/>
<feColorMatrix type="matrix" values="0 0 0 0 1 0 0 0 0 1 0 0 0 0 1 0 0 0 0.4 0"/>
<feBlend mode="normal" in2="shape" result="effect2_innerShadow_1922_6128"/>
</filter>
<filter id="filter9_i_1922_6128" x="12.5215" y="27.1309" width="4.17383" height="49.7393" filterUnits="userSpaceOnUse" color-interpolation-filters="sRGB">
<feFlood flood-opacity="0" result="BackgroundImageFix"/>
<feBlend mode="normal" in="SourceGraphic" in2="BackgroundImageFix" result="shape"/>
<feColorMatrix in="SourceAlpha" type="matrix" values="0 0 0 0 0 0 0 0 0 0 0 0 0 0 0 0 0 0 127 0" result="hardAlpha"/>
<feOffset dy="8"/>
<feGaussianBlur stdDeviation="4"/>
<feComposite in2="hardAlpha" operator="arithmetic" k2="-1" k3="1"/>
<feColorMatrix type="matrix" values="0 0 0 0 1 0 0 0 0 1 0 0 0 0 1 0 0 0 0.4 0"/>
<feBlend mode="normal" in2="shape" result="effect1_innerShadow_1922_6128"/>
</filter>
<filter id="filter10_bi_1922_6128" x="-19.8262" y="-5.2168" width="68.8691" height="68.8691" filterUnits="userSpaceOnUse" color-interpolation-filters="sRGB">
<feFlood flood-opacity="0" result="BackgroundImageFix"/>
<feGaussianBlur in="BackgroundImageFix" stdDeviation="12"/>
<feComposite in2="SourceAlpha" operator="in" result="effect1_backgroundBlur_1922_6128"/>
<feBlend mode="normal" in="SourceGraphic" in2="effect1_backgroundBlur_1922_6128" result="shape"/>
<feColorMatrix in="SourceAlpha" type="matrix" values="0 0 0 0 0 0 0 0 0 0 0 0 0 0 0 0 0 0 127 0" result="hardAlpha"/>
<feOffset dy="8"/>
<feGaussianBlur stdDeviation="6"/>
<feComposite in2="hardAlpha" operator="arithmetic" k2="-1" k3="1"/>
<feColorMatrix type="matrix" values="0 0 0 0 1 0 0 0 0 1 0 0 0 0 1 0 0 0 0.4 0"/>
<feBlend mode="normal" in2="shape" result="effect2_innerShadow_1922_6128"/>
</filter>
<filter id="filter11_i_1922_6128" x="12.5215" y="8.31055" width="37.627" height="30.9932" filterUnits="userSpaceOnUse" color-interpolation-filters="sRGB">
<feFlood flood-opacity="0" result="BackgroundImageFix"/>
<feBlend mode="normal" in="SourceGraphic" in2="BackgroundImageFix" result="shape"/>
<feColorMatrix in="SourceAlpha" type="matrix" values="0 0 0 0 0 0 0 0 0 0 0 0 0 0 0 0 0 0 127 0" result="hardAlpha"/>
<feOffset dy="8"/>
<feGaussianBlur stdDeviation="4"/>
<feComposite in2="hardAlpha" operator="arithmetic" k2="-1" k3="1"/>
<feColorMatrix type="matrix" values="0 0 0 0 1 0 0 0 0 1 0 0 0 0 1 0 0 0 0.4 0"/>
<feBlend mode="normal" in2="shape" result="effect1_innerShadow_1922_6128"/>
</filter>
<filter id="filter12_bi_1922_6128" x="13.5654" y="-24" width="68.8691" height="68.8691" filterUnits="userSpaceOnUse" color-interpolation-filters="sRGB">
<feFlood flood-opacity="0" result="BackgroundImageFix"/>
<feGaussianBlur in="BackgroundImageFix" stdDeviation="12"/>
<feComposite in2="SourceAlpha" operator="in" result="effect1_backgroundBlur_1922_6128"/>
<feBlend mode="normal" in="SourceGraphic" in2="effect1_backgroundBlur_1922_6128" result="shape"/>
<feColorMatrix in="SourceAlpha" type="matrix" values="0 0 0 0 0 0 0 0 0 0 0 0 0 0 0 0 0 0 127 0" result="hardAlpha"/>
<feOffset dy="8"/>
<feGaussianBlur stdDeviation="6"/>
<feComposite in2="hardAlpha" operator="arithmetic" k2="-1" k3="1"/>
<feColorMatrix type="matrix" values="0 0 0 0 1 0 0 0 0 1 0 0 0 0 1 0 0 0 0.4 0"/>
<feBlend mode="normal" in2="shape" result="effect2_innerShadow_1922_6128"/>
</filter>
<filter id="filter13_i_1922_6128" x="45.9785" y="8.38477" width="27.5645" height="25.6631" filterUnits="userSpaceOnUse" color-interpolation-filters="sRGB">
<feFlood flood-opacity="0" result="BackgroundImageFix"/>
<feBlend mode="normal" in="SourceGraphic" in2="BackgroundImageFix" result="shape"/>
<feColorMatrix in="SourceAlpha" type="matrix" values="0 0 0 0 0 0 0 0 0 0 0 0 0 0 0 0 0 0 127 0" result="hardAlpha"/>
<feOffset dy="8"/>
<feGaussianBlur stdDeviation="4"/>
<feComposite in2="hardAlpha" operator="arithmetic" k2="-1" k3="1"/>
<feColorMatrix type="matrix" values="0 0 0 0 1 0 0 0 0 1 0 0 0 0 1 0 0 0 0.4 0"/>
<feBlend mode="normal" in2="shape" result="effect1_innerShadow_1922_6128"/>
</filter>
<linearGradient id="paint0_linear_1922_6128" x1="15.4818" y1="24.2085" x2="93.1199" y2="33.8561" gradientUnits="userSpaceOnUse">
<stop stop-color="#8AE6CF"/>
<stop offset="1" stop-color="#7C3AE7"/>
</linearGradient>
<linearGradient id="paint1_linear_1922_6128" x1="38.435" y1="41.7393" x2="61.1846" y2="44.899" gradientUnits="userSpaceOnUse">
<stop stop-color="#66FECB"/>
<stop offset="1" stop-color="#8940FF"/>
</linearGradient>
<linearGradient id="paint2_linear_1922_6128" x1="38.2176" y1="38.514" x2="58.435" y2="38.514" gradientUnits="userSpaceOnUse">
<stop stop-color="#C8A6FF"/>
<stop offset="1" stop-color="#69CFB5"/>
</linearGradient>
<linearGradient id="paint3_linear_1922_6128" x1="71.8266" y1="22.9571" x2="94.5762" y2="26.1168" gradientUnits="userSpaceOnUse">
<stop stop-color="#66FECB"/>
<stop offset="1" stop-color="#8940FF"/>
</linearGradient>
<linearGradient id="paint4_linear_1922_6128" x1="71.6092" y1="19.7318" x2="91.8266" y2="19.7318" gradientUnits="userSpaceOnUse">
<stop stop-color="#C8A6FF"/>
<stop offset="1" stop-color="#69CFB5"/>
</linearGradient>
<linearGradient id="paint5_linear_1922_6128" x1="79.4786" y1="35.4787" x2="84.1154" y2="35.5431" gradientUnits="userSpaceOnUse">
<stop stop-color="#8AE6CF"/>
<stop offset="1" stop-color="#7C3AE7"/>
</linearGradient>
<linearGradient id="paint6_linear_1922_6128" x1="71.8266" y1="60.5216" x2="94.5762" y2="63.6812" gradientUnits="userSpaceOnUse">
<stop stop-color="#66FECB"/>
<stop offset="1" stop-color="#8940FF"/>
</linearGradient>
<linearGradient id="paint7_linear_1922_6128" x1="71.6092" y1="57.2963" x2="91.8266" y2="57.2963" gradientUnits="userSpaceOnUse">
<stop stop-color="#C8A6FF"/>
<stop offset="1" stop-color="#69CFB5"/>
</linearGradient>
<linearGradient id="paint8_linear_1922_6128" x1="47.4755" y1="69.3165" x2="87.0944" y2="78.3189" gradientUnits="userSpaceOnUse">
<stop stop-color="#8AE6CF"/>
<stop offset="1" stop-color="#7C3AE7"/>
</linearGradient>
<linearGradient id="paint9_linear_1922_6128" x1="38.435" y1="79.3048" x2="61.1846" y2="82.4644" gradientUnits="userSpaceOnUse">
<stop stop-color="#66FECB"/>
<stop offset="1" stop-color="#8940FF"/>
</linearGradient>
<linearGradient id="paint10_linear_1922_6128" x1="38.2176" y1="76.0795" x2="58.435" y2="76.0795" gradientUnits="userSpaceOnUse">
<stop stop-color="#C8A6FF"/>
<stop offset="1" stop-color="#69CFB5"/>
</linearGradient>
<linearGradient id="paint11_linear_1922_6128" x1="14.1493" y1="69.3165" x2="53.7682" y2="78.3189" gradientUnits="userSpaceOnUse">
<stop stop-color="#8AE6CF"/>
<stop offset="1" stop-color="#7C3AE7"/>
</linearGradient>
<linearGradient id="paint12_linear_1922_6128" x1="5.04339" y1="60.5216" x2="27.793" y2="63.6812" gradientUnits="userSpaceOnUse">
<stop stop-color="#66FECB"/>
<stop offset="1" stop-color="#8940FF"/>
</linearGradient>
<linearGradient id="paint13_linear_1922_6128" x1="4.826" y1="57.2963" x2="25.0434" y2="57.2963" gradientUnits="userSpaceOnUse">
<stop stop-color="#C8A6FF"/>
<stop offset="1" stop-color="#69CFB5"/>
</linearGradient>
<linearGradient id="paint14_linear_1922_6128" x1="12.6954" y1="35.4787" x2="17.3322" y2="35.5431" gradientUnits="userSpaceOnUse">
<stop stop-color="#8AE6CF"/>
<stop offset="1" stop-color="#7C3AE7"/>
</linearGradient>
<linearGradient id="paint15_linear_1922_6128" x1="5.04339" y1="22.9571" x2="27.793" y2="26.1168" gradientUnits="userSpaceOnUse">
<stop stop-color="#66FECB"/>
<stop offset="1" stop-color="#8940FF"/>
</linearGradient>
<linearGradient id="paint16_linear_1922_6128" x1="4.826" y1="19.7318" x2="25.0434" y2="19.7318" gradientUnits="userSpaceOnUse">
<stop stop-color="#C8A6FF"/>
<stop offset="1" stop-color="#69CFB5"/>
</linearGradient>
<linearGradient id="paint17_linear_1922_6128" x1="14.0893" y1="12.9091" x2="53.8435" y2="21.9447" gradientUnits="userSpaceOnUse">
<stop stop-color="#8AE6CF"/>
<stop offset="1" stop-color="#7C3AE7"/>
</linearGradient>
<linearGradient id="paint18_linear_1922_6128" x1="38.435" y1="4.17392" x2="61.1846" y2="7.33358" gradientUnits="userSpaceOnUse">
<stop stop-color="#66FECB"/>
<stop offset="1" stop-color="#8940FF"/>
</linearGradient>
<linearGradient id="paint19_linear_1922_6128" x1="38.2176" y1="0.948617" x2="58.435" y2="0.948617" gradientUnits="userSpaceOnUse">
<stop stop-color="#C8A6FF"/>
<stop offset="1" stop-color="#69CFB5"/>
</linearGradient>
<linearGradient id="paint20_linear_1922_6128" x1="47.127" y1="11.9174" x2="76.3802" y2="18.2579" gradientUnits="userSpaceOnUse">
<stop stop-color="#8AE6CF"/>
<stop offset="1" stop-color="#7C3AE7"/>
</linearGradient>
</defs>
</svg>
