<svg width="96" height="96" viewBox="0 0 96 96" fill="none" xmlns="http://www.w3.org/2000/svg">
<path d="M77.2182 22.957H18.7835C18.7835 29.8726 13.1773 35.4788 6.26172 35.4788V60.5222C13.1773 60.5222 18.7835 66.1284 18.7835 73.044H77.2182C77.2182 66.1284 82.8244 60.5222 89.74 60.5222V35.4788C82.8244 35.4788 77.2182 29.8726 77.2182 22.957Z" fill="url(#paint0_linear_1922_6159)"/>
<g filter="url(#filter0_bi_1922_6159)">
<path d="M93.913 79.304H2.08696C0.934435 79.304 0 78.3696 0 77.2171V18.7823C0 17.6297 0.934435 16.6953 2.08696 16.6953H93.913C95.0656 16.6953 96 17.6297 96 18.7823V77.2171C96 78.3696 95.0656 79.304 93.913 79.304Z" fill="#F1F1F1" fill-opacity="0.1"/>
<path d="M93.913 79.304H2.08696C0.934435 79.304 0 78.3696 0 77.2171V18.7823C0 17.6297 0.934435 16.6953 2.08696 16.6953H93.913C95.0656 16.6953 96 17.6297 96 18.7823V77.2171C96 78.3696 95.0656 79.304 93.913 79.304Z" fill="url(#paint1_linear_1922_6159)" fill-opacity="0.2"/>
<path d="M93.913 78.704H2.08696C1.26581 78.704 0.6 78.0382 0.6 77.2171V18.7823C0.6 17.9611 1.26581 17.2953 2.08696 17.2953H93.913C94.7342 17.2953 95.4 17.9611 95.4 18.7823V77.2171C95.4 78.0382 94.7342 78.704 93.913 78.704Z" stroke="url(#paint2_linear_1922_6159)" stroke-opacity="0.1" stroke-width="1.2"/>
</g>
<g filter="url(#filter1_i_1922_6159)">
<path d="M77.2182 22.957H18.7835C18.7835 29.8726 13.1773 35.4788 6.26172 35.4788V60.5222C13.1773 60.5222 18.7835 66.1284 18.7835 73.044H77.2182C77.2182 66.1284 82.8244 60.5222 89.74 60.5222V35.4788C82.8244 35.4788 77.2182 29.8726 77.2182 22.957Z" fill="white" fill-opacity="0.16"/>
</g>
<g filter="url(#filter2_i_1922_6159)">
<path d="M47.9993 62.608C56.0675 62.608 62.608 56.0675 62.608 47.9993C62.608 39.9312 56.0675 33.3906 47.9993 33.3906C39.9312 33.3906 33.3906 39.9312 33.3906 47.9993C33.3906 56.0675 39.9312 62.608 47.9993 62.608Z" fill="white" fill-opacity="0.16"/>
</g>
<defs>
<filter id="filter0_bi_1922_6159" x="-24" y="-7.30469" width="144" height="110.609" filterUnits="userSpaceOnUse" color-interpolation-filters="sRGB">
<feFlood flood-opacity="0" result="BackgroundImageFix"/>
<feGaussianBlur in="BackgroundImageFix" stdDeviation="12"/>
<feComposite in2="SourceAlpha" operator="in" result="effect1_backgroundBlur_1922_6159"/>
<feBlend mode="normal" in="SourceGraphic" in2="effect1_backgroundBlur_1922_6159" result="shape"/>
<feColorMatrix in="SourceAlpha" type="matrix" values="0 0 0 0 0 0 0 0 0 0 0 0 0 0 0 0 0 0 127 0" result="hardAlpha"/>
<feOffset dy="8"/>
<feGaussianBlur stdDeviation="6"/>
<feComposite in2="hardAlpha" operator="arithmetic" k2="-1" k3="1"/>
<feColorMatrix type="matrix" values="0 0 0 0 1 0 0 0 0 1 0 0 0 0 1 0 0 0 0.4 0"/>
<feBlend mode="normal" in2="shape" result="effect2_innerShadow_1922_6159"/>
</filter>
<filter id="filter1_i_1922_6159" x="6.26172" y="22.957" width="83.4785" height="58.0869" filterUnits="userSpaceOnUse" color-interpolation-filters="sRGB">
<feFlood flood-opacity="0" result="BackgroundImageFix"/>
<feBlend mode="normal" in="SourceGraphic" in2="BackgroundImageFix" result="shape"/>
<feColorMatrix in="SourceAlpha" type="matrix" values="0 0 0 0 0 0 0 0 0 0 0 0 0 0 0 0 0 0 127 0" result="hardAlpha"/>
<feOffset dy="8"/>
<feGaussianBlur stdDeviation="4"/>
<feComposite in2="hardAlpha" operator="arithmetic" k2="-1" k3="1"/>
<feColorMatrix type="matrix" values="0 0 0 0 1 0 0 0 0 1 0 0 0 0 1 0 0 0 0.4 0"/>
<feBlend mode="normal" in2="shape" result="effect1_innerShadow_1922_6159"/>
</filter>
<filter id="filter2_i_1922_6159" x="33.3906" y="33.3906" width="29.2178" height="37.2173" filterUnits="userSpaceOnUse" color-interpolation-filters="sRGB">
<feFlood flood-opacity="0" result="BackgroundImageFix"/>
<feBlend mode="normal" in="SourceGraphic" in2="BackgroundImageFix" result="shape"/>
<feColorMatrix in="SourceAlpha" type="matrix" values="0 0 0 0 0 0 0 0 0 0 0 0 0 0 0 0 0 0 127 0" result="hardAlpha"/>
<feOffset dy="8"/>
<feGaussianBlur stdDeviation="4"/>
<feComposite in2="hardAlpha" operator="arithmetic" k2="-1" k3="1"/>
<feColorMatrix type="matrix" values="0 0 0 0 1 0 0 0 0 1 0 0 0 0 1 0 0 0 0.4 0"/>
<feBlend mode="normal" in2="shape" result="effect1_innerShadow_1922_6159"/>
</filter>
<linearGradient id="paint0_linear_1922_6159" x1="9.73998" y1="32.9744" x2="97.7763" y2="53.3532" gradientUnits="userSpaceOnUse">
<stop stop-color="#8AE6CF"/>
<stop offset="1" stop-color="#7C3AE7"/>
</linearGradient>
<linearGradient id="paint1_linear_1922_6159" x1="4" y1="29.2171" x2="106.039" y2="50.9476" gradientUnits="userSpaceOnUse">
<stop stop-color="#66FECB"/>
<stop offset="1" stop-color="#8940FF"/>
</linearGradient>
<linearGradient id="paint2_linear_1922_6159" x1="3" y1="19.5412" x2="96" y2="19.5412" gradientUnits="userSpaceOnUse">
<stop stop-color="#C8A6FF"/>
<stop offset="1" stop-color="#69CFB5"/>
</linearGradient>
</defs>
</svg>
