<svg width="96" height="96" viewBox="0 0 96 96" fill="none" xmlns="http://www.w3.org/2000/svg">
<g clip-path="url(#clip0_1922_6143)">
<path d="M79.8849 89.3046H16.1153C15.3149 89.3046 14.666 88.6564 14.666 87.8553V60.3184C14.666 59.5174 15.3149 58.8691 16.1153 58.8691H79.8849C80.6852 58.8691 81.3342 59.5174 81.3342 60.3184V87.8553C81.3342 88.6564 80.6852 89.3046 79.8849 89.3046Z" fill="url(#paint0_linear_1922_6143)"/>
<g filter="url(#filter0_bi_1922_6143)">
<path d="M93.913 95.9999H2.08696C0.934435 95.9999 0 95.0665 0 93.913V54.2608C0 53.1073 0.934435 52.1738 2.08696 52.1738H93.913C95.0656 52.1738 96 53.1073 96 54.2608V93.913C96 95.0665 95.0656 95.9999 93.913 95.9999Z" fill="#F1F1F1" fill-opacity="0.1"/>
<path d="M93.913 95.9999H2.08696C0.934435 95.9999 0 95.0665 0 93.913V54.2608C0 53.1073 0.934435 52.1738 2.08696 52.1738H93.913C95.0656 52.1738 96 53.1073 96 54.2608V93.913C96 95.0665 95.0656 95.9999 93.913 95.9999Z" fill="url(#paint1_linear_1922_6143)" fill-opacity="0.2"/>
<path d="M93.913 95.3999H2.08696C1.26562 95.3999 0.6 94.7349 0.6 93.913V54.2608C0.6 53.4388 1.26562 52.7738 2.08696 52.7738H93.913C94.7344 52.7738 95.4 53.4388 95.4 54.2608V93.913C95.4 94.7349 94.7344 95.3999 93.913 95.3999Z" stroke="url(#paint2_linear_1922_6143)" stroke-opacity="0.1" stroke-width="1.2"/>
</g>
<g filter="url(#filter1_i_1922_6143)">
<path d="M79.3044 68.8697H45.9131C44.7606 68.8697 43.8262 67.9363 43.8262 66.7828C43.8262 65.6292 44.7606 64.6958 45.9131 64.6958H79.3044C80.457 64.6958 81.3914 65.6292 81.3914 66.7828C81.3914 67.9363 80.457 68.8697 79.3044 68.8697Z" fill="white" fill-opacity="0.16"/>
</g>
<g filter="url(#filter2_i_1922_6143)">
<path d="M79.305 83.4781H16.6963C15.5438 83.4781 14.6094 82.5447 14.6094 81.3912C14.6094 80.2376 15.5438 79.3042 16.6963 79.3042H79.305C80.4576 79.3042 81.392 80.2376 81.392 81.3912C81.392 82.5447 80.4576 83.4781 79.305 83.4781Z" fill="white" fill-opacity="0.16"/>
</g>
<path d="M69.8148 27.5501L61.4669 19.2022C60.6517 18.387 59.3311 18.387 58.5159 19.2022L19.3947 58.3237C16.7933 60.9251 16.396 64.8761 18.1394 67.9268L15.2208 70.8454C14.4056 71.6606 14.4056 72.9813 15.2208 73.7965C15.6284 74.2041 16.1624 74.4079 16.6963 74.4079C17.2303 74.4079 17.7643 74.2041 18.1719 73.7965L21.0902 70.8781C22.3143 71.5778 23.6728 71.9592 25.0441 71.9592C27.0903 71.9592 29.1365 71.1807 30.6936 69.6226L69.8148 30.5011C70.63 29.6859 70.63 28.3653 69.8148 27.5501Z" fill="url(#paint3_linear_1922_6143)"/>
<path d="M73.044 47.2774C72.51 47.2774 71.976 47.0736 71.5684 46.666C70.7532 45.8508 70.7532 44.5301 71.5684 43.7149L86.7886 28.4948L82.0032 23.7095C81.188 22.8943 81.188 21.5736 82.0032 20.7584C82.8184 19.9432 84.1391 19.9432 84.9543 20.7584L91.2152 27.0192C92.0304 27.8345 92.0304 29.1551 91.2152 29.9703L74.5195 46.666C74.1119 47.0736 73.5779 47.2774 73.044 47.2774Z" fill="url(#paint4_linear_1922_6143)"/>
<g filter="url(#filter3_bi_1922_6143)">
<path d="M84.954 4.06283C79.5368 -1.35428 70.7243 -1.35428 65.3072 4.06283L40.2637 29.1063C39.4485 29.9215 39.4485 31.2422 40.2637 32.0574L56.9594 48.753C57.367 49.1606 57.901 49.3645 58.4349 49.3645C58.9689 49.3645 59.5029 49.1606 59.9105 48.753L84.954 23.7096C90.3711 18.2935 90.3711 9.47892 84.954 4.06283Z" fill="#F1F1F1" fill-opacity="0.1"/>
<path d="M84.954 4.06283C79.5368 -1.35428 70.7243 -1.35428 65.3072 4.06283L40.2637 29.1063C39.4485 29.9215 39.4485 31.2422 40.2637 32.0574L56.9594 48.753C57.367 49.1606 57.901 49.3645 58.4349 49.3645C58.9689 49.3645 59.5029 49.1606 59.9105 48.753L84.954 23.7096C90.3711 18.2935 90.3711 9.47892 84.954 4.06283Z" fill="url(#paint5_linear_1922_6143)" fill-opacity="0.2"/>
<path d="M84.5297 4.4871L84.5297 4.48714C89.7125 9.6689 89.7125 18.1035 84.5297 23.2853L84.5297 23.2853L59.4862 48.3288C59.1956 48.6194 58.8162 48.7645 58.4349 48.7645C58.0537 48.7645 57.6743 48.6194 57.3837 48.3288L40.688 31.6331C40.1071 31.0522 40.1071 30.1115 40.688 29.5306L65.7315 4.4871C70.9143 -0.6957 79.3469 -0.6957 84.5297 4.4871Z" stroke="url(#paint6_linear_1922_6143)" stroke-opacity="0.1" stroke-width="1.2"/>
</g>
</g>
<defs>
<filter id="filter0_bi_1922_6143" x="-24" y="28.1738" width="144" height="91.8262" filterUnits="userSpaceOnUse" color-interpolation-filters="sRGB">
<feFlood flood-opacity="0" result="BackgroundImageFix"/>
<feGaussianBlur in="BackgroundImageFix" stdDeviation="12"/>
<feComposite in2="SourceAlpha" operator="in" result="effect1_backgroundBlur_1922_6143"/>
<feBlend mode="normal" in="SourceGraphic" in2="effect1_backgroundBlur_1922_6143" result="shape"/>
<feColorMatrix in="SourceAlpha" type="matrix" values="0 0 0 0 0 0 0 0 0 0 0 0 0 0 0 0 0 0 127 0" result="hardAlpha"/>
<feOffset dy="8"/>
<feGaussianBlur stdDeviation="6"/>
<feComposite in2="hardAlpha" operator="arithmetic" k2="-1" k3="1"/>
<feColorMatrix type="matrix" values="0 0 0 0 1 0 0 0 0 1 0 0 0 0 1 0 0 0 0.4 0"/>
<feBlend mode="normal" in2="shape" result="effect2_innerShadow_1922_6143"/>
</filter>
<filter id="filter1_i_1922_6143" x="43.8262" y="64.6958" width="37.5654" height="12.1738" filterUnits="userSpaceOnUse" color-interpolation-filters="sRGB">
<feFlood flood-opacity="0" result="BackgroundImageFix"/>
<feBlend mode="normal" in="SourceGraphic" in2="BackgroundImageFix" result="shape"/>
<feColorMatrix in="SourceAlpha" type="matrix" values="0 0 0 0 0 0 0 0 0 0 0 0 0 0 0 0 0 0 127 0" result="hardAlpha"/>
<feOffset dy="8"/>
<feGaussianBlur stdDeviation="4"/>
<feComposite in2="hardAlpha" operator="arithmetic" k2="-1" k3="1"/>
<feColorMatrix type="matrix" values="0 0 0 0 1 0 0 0 0 1 0 0 0 0 1 0 0 0 0.4 0"/>
<feBlend mode="normal" in2="shape" result="effect1_innerShadow_1922_6143"/>
</filter>
<filter id="filter2_i_1922_6143" x="14.6094" y="79.3042" width="66.7822" height="12.1738" filterUnits="userSpaceOnUse" color-interpolation-filters="sRGB">
<feFlood flood-opacity="0" result="BackgroundImageFix"/>
<feBlend mode="normal" in="SourceGraphic" in2="BackgroundImageFix" result="shape"/>
<feColorMatrix in="SourceAlpha" type="matrix" values="0 0 0 0 0 0 0 0 0 0 0 0 0 0 0 0 0 0 127 0" result="hardAlpha"/>
<feOffset dy="8"/>
<feGaussianBlur stdDeviation="4"/>
<feComposite in2="hardAlpha" operator="arithmetic" k2="-1" k3="1"/>
<feColorMatrix type="matrix" values="0 0 0 0 1 0 0 0 0 1 0 0 0 0 1 0 0 0 0.4 0"/>
<feBlend mode="normal" in2="shape" result="effect1_innerShadow_1922_6143"/>
</filter>
<filter id="filter3_bi_1922_6143" x="15.6523" y="-24" width="97.3643" height="97.3643" filterUnits="userSpaceOnUse" color-interpolation-filters="sRGB">
<feFlood flood-opacity="0" result="BackgroundImageFix"/>
<feGaussianBlur in="BackgroundImageFix" stdDeviation="12"/>
<feComposite in2="SourceAlpha" operator="in" result="effect1_backgroundBlur_1922_6143"/>
<feBlend mode="normal" in="SourceGraphic" in2="effect1_backgroundBlur_1922_6143" result="shape"/>
<feColorMatrix in="SourceAlpha" type="matrix" values="0 0 0 0 0 0 0 0 0 0 0 0 0 0 0 0 0 0 127 0" result="hardAlpha"/>
<feOffset dy="8"/>
<feGaussianBlur stdDeviation="6"/>
<feComposite in2="hardAlpha" operator="arithmetic" k2="-1" k3="1"/>
<feColorMatrix type="matrix" values="0 0 0 0 1 0 0 0 0 1 0 0 0 0 1 0 0 0 0.4 0"/>
<feBlend mode="normal" in2="shape" result="effect2_innerShadow_1922_6143"/>
</filter>
<linearGradient id="paint0_linear_1922_6143" x1="17.4439" y1="64.9562" x2="85.2441" y2="85.5833" gradientUnits="userSpaceOnUse">
<stop stop-color="#8AE6CF"/>
<stop offset="1" stop-color="#7C3AE7"/>
</linearGradient>
<linearGradient id="paint1_linear_1922_6143" x1="4" y1="60.9391" x2="101.63" y2="90.6414" gradientUnits="userSpaceOnUse">
<stop stop-color="#66FECB"/>
<stop offset="1" stop-color="#8940FF"/>
</linearGradient>
<linearGradient id="paint2_linear_1922_6143" x1="3" y1="54.1659" x2="96" y2="54.1659" gradientUnits="userSpaceOnUse">
<stop stop-color="#C8A6FF"/>
<stop offset="1" stop-color="#69CFB5"/>
</linearGradient>
<linearGradient id="paint3_linear_1922_6143" x1="16.9351" y1="29.7542" x2="77.7801" y2="38.2049" gradientUnits="userSpaceOnUse">
<stop stop-color="#8AE6CF"/>
<stop offset="1" stop-color="#7C3AE7"/>
</linearGradient>
<linearGradient id="paint4_linear_1922_6143" x1="71.8266" y1="25.5731" x2="94.7533" y2="28.0225" gradientUnits="userSpaceOnUse">
<stop stop-color="#8AE6CF"/>
<stop offset="1" stop-color="#7C3AE7"/>
</linearGradient>
<linearGradient id="paint5_linear_1922_6143" x1="41.7092" y1="9.8729" x2="95.5206" y2="17.3467" gradientUnits="userSpaceOnUse">
<stop stop-color="#66FECB"/>
<stop offset="1" stop-color="#8940FF"/>
</linearGradient>
<linearGradient id="paint6_linear_1922_6143" x1="41.195" y1="2.24384" x2="89.0168" y2="2.24384" gradientUnits="userSpaceOnUse">
<stop stop-color="#C8A6FF"/>
<stop offset="1" stop-color="#69CFB5"/>
</linearGradient>
<clipPath id="clip0_1922_6143">
<rect width="96" height="96" fill="white"/>
</clipPath>
</defs>
</svg>
