<svg width="44" height="44" viewBox="0 0 44 44" fill="none" xmlns="http://www.w3.org/2000/svg">
<circle cx="21.6332" cy="21.6332" r="21.6332" fill="url(#paint0_linear_1639_4964)"/>
<path d="M21.01 10C14.3769 10 9 15.3769 9 22.01C9 27.1005 12.1633 31.4497 16.6307 33.1996C16.5215 32.251 16.4334 30.7876 16.6698 29.7499C16.8871 28.8103 18.0731 23.7789 18.0731 23.7789C18.0731 23.7789 17.7175 23.0577 17.7175 22C17.7175 20.3292 18.6861 19.0841 19.8921 19.0841C20.9198 19.0841 21.4147 19.8554 21.4147 20.7749C21.4147 21.8026 20.7626 23.3452 20.416 24.7786C20.1295 25.9746 21.019 26.9532 22.195 26.9532C24.3305 26.9532 25.9712 24.6995 25.9712 21.4571C25.9712 18.5803 23.9058 16.5739 20.9499 16.5739C17.5302 16.5739 15.5229 19.1342 15.5229 21.7836C15.5229 22.8113 15.9185 23.9192 16.4123 24.5222C16.5125 24.6394 16.5225 24.7485 16.4925 24.8667C16.4033 25.2424 16.196 26.0627 16.1559 26.231C16.1068 26.4484 15.9776 26.4975 15.7502 26.3893C14.2477 25.6871 13.3082 23.5025 13.3082 21.7335C13.3082 17.9472 16.0557 14.4684 21.2454 14.4684C25.4073 14.4684 28.6487 17.4344 28.6487 21.408C28.6487 25.5499 26.0394 28.8814 22.4213 28.8814C21.2053 28.8814 20.0584 28.2484 19.6738 27.4971C19.6738 27.4971 19.0708 29.7899 18.9225 30.3539C18.6561 31.4016 17.9239 32.7068 17.43 33.5071C18.5579 33.8517 19.7449 34.04 20.99 34.04C27.623 34.04 32.9999 28.6631 32.9999 22.03C33.02 15.3769 27.643 10 21.01 10Z" fill="white"/>
<defs>
<linearGradient id="paint0_linear_1639_4964" x1="1.77321" y1="37.7379" x2="43.2664" y2="37.7379" gradientUnits="userSpaceOnUse">
<stop offset="0.0339999" stop-color="#7E97FF"/>
<stop offset="0.909" stop-color="#C980FF"/>
</linearGradient>
</defs>
</svg>
