<svg width="96" height="96" viewBox="0 0 96 96" fill="none" xmlns="http://www.w3.org/2000/svg">
<path d="M79.9105 21.8817L48.4107 12.0636C48.1421 11.9801 47.8574 11.9801 47.5887 12.0636L16.089 21.8817C15.7753 21.9793 15.4992 22.1857 15.3027 22.4698C15.1062 22.7538 14.9999 23.1 15 23.4559C15 46.8117 23.7839 61.9823 31.1534 70.5961C35.7456 76.1116 41.2634 80.6169 47.4087 83.8686C47.5955 83.9559 47.7965 84.001 47.9997 84.001C48.2029 84.001 48.404 83.9559 48.5907 83.8686C54.7361 80.6169 60.2539 76.1116 64.8461 70.5961C72.2155 61.9823 80.9995 46.8117 80.9995 23.4559C80.9995 23.1 80.8933 22.7538 80.6968 22.4698C80.5002 22.1857 80.2242 21.9793 79.9105 21.8817Z" fill="url(#paint0_linear_1922_6124)"/>
<g filter="url(#filter0_bi_1922_6124)">
<path d="M90.548 13.1744L48.548 0.0834986C48.1898 -0.0278328 47.8102 -0.0278328 47.452 0.0834986L5.452 13.1744C5.03368 13.3044 4.66561 13.5796 4.40359 13.9584C4.14157 14.3371 3.99988 14.7988 4 15.2733C4 46.4142 15.712 66.6418 25.538 78.1268C31.661 85.4809 39.0181 91.4879 47.212 95.8235C47.461 95.9399 47.7291 96 48 96C48.2709 96 48.539 95.9399 48.788 95.8235C56.9819 91.4879 64.339 85.4809 70.462 78.1268C80.288 66.6418 92 46.4142 92 15.2733C92.0001 14.7988 91.8584 14.3371 91.5964 13.9584C91.3344 13.5796 90.9663 13.3044 90.548 13.1744Z" fill="#F1F1F1" fill-opacity="0.1"/>
<path d="M90.548 13.1744L48.548 0.0834986C48.1898 -0.0278328 47.8102 -0.0278328 47.452 0.0834986L5.452 13.1744C5.03368 13.3044 4.66561 13.5796 4.40359 13.9584C4.14157 14.3371 3.99988 14.7988 4 15.2733C4 46.4142 15.712 66.6418 25.538 78.1268C31.661 85.4809 39.0181 91.4879 47.212 95.8235C47.461 95.9399 47.7291 96 48 96C48.2709 96 48.539 95.9399 48.788 95.8235C56.9819 91.4879 64.339 85.4809 70.462 78.1268C80.288 66.6418 92 46.4142 92 15.2733C92.0001 14.7988 91.8584 14.3371 91.5964 13.9584C91.3344 13.5796 90.9663 13.3044 90.548 13.1744Z" fill="url(#paint1_linear_1922_6124)" fill-opacity="0.2"/>
<path d="M90.3695 13.7472L90.3699 13.7473C90.6533 13.8354 90.913 14.0252 91.103 14.2997C91.2934 14.5749 91.4001 14.9167 91.4 15.2731V15.2733C91.4 46.2491 79.7545 66.3424 70.0061 77.7368L70.006 77.7368L70.0009 77.7429C63.9299 85.0346 56.6385 90.9884 48.5217 95.2856C48.3546 95.3617 48.1774 95.4 48 95.4C47.8226 95.4 47.6454 95.3617 47.4783 95.2856C39.3615 90.9884 32.0701 85.0346 25.9991 77.7429L25.9939 77.7368C16.2455 66.3424 4.6 46.2491 4.6 15.2733L4.6 15.2731C4.59991 14.9167 4.70663 14.5749 4.89703 14.2997C5.08697 14.0252 5.34669 13.8354 5.63008 13.7473L5.63054 13.7472L47.6301 0.656463C47.8723 0.581179 48.1277 0.581179 48.3699 0.656463L90.3695 13.7472Z" stroke="url(#paint2_linear_1922_6124)" stroke-opacity="0.1" stroke-width="1.2"/>
</g>
<g filter="url(#filter1_i_1922_6124)">
<path d="M49.9642 23.0368L55.1308 33.5095L66.6769 35.1873C67.0794 35.2461 67.4575 35.4163 67.7684 35.6786C68.0793 35.941 68.3107 36.285 68.4364 36.6719C68.5621 37.0588 68.5772 37.4732 68.4799 37.8682C68.3825 38.2632 68.1767 38.6231 67.8856 38.9073L59.5293 47.0541L61.4929 58.5523C61.5617 58.9535 61.5168 59.366 61.3634 59.7431C61.2099 60.1201 60.9541 60.4467 60.6247 60.686C60.2954 60.9252 59.9056 61.0676 59.4996 61.0969C59.0936 61.1262 58.6874 61.0414 58.3271 60.8519L48.0006 55.4192L37.6741 60.8475C37.3138 61.037 36.9077 61.1218 36.5016 61.0925C36.0956 61.0632 35.7059 60.9209 35.3765 60.6816C35.0471 60.4424 34.7913 60.1158 34.6379 59.7387C34.4844 59.3616 34.4396 58.9492 34.5083 58.5479L36.4719 47.0498L28.1156 38.9029C27.8245 38.6187 27.6187 38.2588 27.5214 37.8638C27.424 37.4688 27.4391 37.0545 27.5648 36.6676C27.6905 36.2807 27.9219 35.9366 28.2328 35.6743C28.5437 35.4119 28.9218 35.2417 29.3243 35.1829L40.8705 33.5051L46.037 23.0324C46.2363 22.6878 46.5228 22.4018 46.8677 22.2031C47.2126 22.0043 47.6038 21.8999 48.0019 21.9004C48.4 21.9008 48.7909 22.0061 49.1354 22.2056C49.4798 22.4051 49.7657 22.6917 49.9642 23.0368Z" fill="white" fill-opacity="0.16"/>
</g>
<defs>
<filter id="filter0_bi_1922_6124" x="-20" y="-24" width="136" height="144" filterUnits="userSpaceOnUse" color-interpolation-filters="sRGB">
<feFlood flood-opacity="0" result="BackgroundImageFix"/>
<feGaussianBlur in="BackgroundImageFix" stdDeviation="12"/>
<feComposite in2="SourceAlpha" operator="in" result="effect1_backgroundBlur_1922_6124"/>
<feBlend mode="normal" in="SourceGraphic" in2="effect1_backgroundBlur_1922_6124" result="shape"/>
<feColorMatrix in="SourceAlpha" type="matrix" values="0 0 0 0 0 0 0 0 0 0 0 0 0 0 0 0 0 0 127 0" result="hardAlpha"/>
<feOffset dy="8"/>
<feGaussianBlur stdDeviation="6"/>
<feComposite in2="hardAlpha" operator="arithmetic" k2="-1" k3="1"/>
<feColorMatrix type="matrix" values="0 0 0 0 1 0 0 0 0 1 0 0 0 0 1 0 0 0 0.4 0"/>
<feBlend mode="normal" in2="shape" result="effect2_innerShadow_1922_6124"/>
</filter>
<filter id="filter1_i_1922_6124" x="27.458" y="21.9004" width="41.085" height="47.2021" filterUnits="userSpaceOnUse" color-interpolation-filters="sRGB">
<feFlood flood-opacity="0" result="BackgroundImageFix"/>
<feBlend mode="normal" in="SourceGraphic" in2="BackgroundImageFix" result="shape"/>
<feColorMatrix in="SourceAlpha" type="matrix" values="0 0 0 0 0 0 0 0 0 0 0 0 0 0 0 0 0 0 127 0" result="hardAlpha"/>
<feOffset dy="8"/>
<feGaussianBlur stdDeviation="4"/>
<feComposite in2="hardAlpha" operator="arithmetic" k2="-1" k3="1"/>
<feColorMatrix type="matrix" values="0 0 0 0 1 0 0 0 0 1 0 0 0 0 1 0 0 0 0.4 0"/>
<feBlend mode="normal" in2="shape" result="effect1_innerShadow_1922_6124"/>
</filter>
<linearGradient id="paint0_linear_1922_6124" x1="17.75" y1="26.401" x2="89.913" y2="35.5883" gradientUnits="userSpaceOnUse">
<stop stop-color="#8AE6CF"/>
<stop offset="1" stop-color="#7C3AE7"/>
</linearGradient>
<linearGradient id="paint1_linear_1922_6124" x1="7.66667" y1="19.2" x2="103.885" y2="31.45" gradientUnits="userSpaceOnUse">
<stop stop-color="#66FECB"/>
<stop offset="1" stop-color="#8940FF"/>
</linearGradient>
<linearGradient id="paint2_linear_1922_6124" x1="6.75" y1="4.36364" x2="92" y2="4.36364" gradientUnits="userSpaceOnUse">
<stop stop-color="#C8A6FF"/>
<stop offset="1" stop-color="#69CFB5"/>
</linearGradient>
</defs>
</svg>
