<svg width="44" height="44" viewBox="0 0 44 44" fill="none" xmlns="http://www.w3.org/2000/svg">
<circle cx="22.1332" cy="21.6332" r="21.6332" fill="url(#paint0_linear_1637_4941)"/>
<path d="M22.5 10C15.873 10 10.5 15.373 10.5 22C10.5 28.628 15.873 34 22.5 34C29.128 34 34.5 28.628 34.5 22C34.5 15.373 29.128 10 22.5 10ZM28.003 27.308C27.787 27.662 27.327 27.772 26.975 27.557C24.157 25.835 20.61 25.446 16.433 26.4C16.03 26.492 15.629 26.24 15.537 25.838C15.445 25.436 15.696 25.034 16.1 24.943C20.671 23.898 24.592 24.348 27.755 26.281C28.108 26.495 28.219 26.956 28.003 27.308ZM29.472 24.041C29.201 24.481 28.625 24.619 28.185 24.349C24.96 22.367 20.043 21.792 16.227 22.951C15.733 23.1 15.21 22.821 15.06 22.327C14.911 21.832 15.19 21.311 15.684 21.16C20.042 19.837 25.46 20.478 29.164 22.754C29.604 23.025 29.742 23.601 29.472 24.041ZM29.598 20.638C25.73 18.341 19.35 18.13 15.657 19.251C15.064 19.431 14.437 19.096 14.257 18.503C14.077 17.91 14.412 17.283 15.005 17.103C19.244 15.816 26.29 16.065 30.743 18.708C31.276 19.025 31.451 19.713 31.135 20.246C30.82 20.779 30.13 20.955 29.598 20.638Z" fill="white"/>
<defs>
<linearGradient id="paint0_linear_1637_4941" x1="2.27321" y1="37.7379" x2="43.7664" y2="37.7379" gradientUnits="userSpaceOnUse">
<stop offset="0.0339999" stop-color="#7E97FF"/>
<stop offset="0.909" stop-color="#C980FF"/>
</linearGradient>
</defs>
</svg>
