<svg width="44" height="44" viewBox="0 0 44 44" fill="none" xmlns="http://www.w3.org/2000/svg">
<circle cx="21.6987" cy="21.6332" r="21.6332" fill="url(#paint0_linear_488_1057)"/>
<path fill-rule="evenodd" clip-rule="evenodd" d="M11.3474 21.32C16.8942 18.8661 20.602 17.28 22.4411 16.502C27.7209 14.2875 28.8185 13.8984 29.5303 13.8984C29.6787 13.8984 30.0346 13.9284 30.2719 14.1079C30.4499 14.2575 30.5092 14.467 30.5389 14.6167C30.5685 14.7663 30.5982 15.0955 30.5685 15.3648C30.2719 18.3873 29.0557 25.7789 28.4032 29.1606C28.1362 30.597 27.6023 31.0758 27.098 31.1356C26.0005 31.2254 25.1403 30.3875 24.0725 29.6992C22.4114 28.592 21.4622 27.9037 19.8308 26.8263C17.9621 25.5695 19.1782 24.8812 20.2461 23.7739C20.513 23.4747 25.4073 19.0157 25.4963 18.5968C25.4963 18.5369 25.5259 18.3574 25.4073 18.2676C25.2887 18.1778 25.1403 18.2077 25.0217 18.2377C24.8437 18.2676 22.1741 20.0631 16.9832 23.5944C16.212 24.133 15.5298 24.3724 14.9069 24.3724C14.2246 24.3724 12.9195 23.9834 11.9407 23.6542C10.7542 23.2652 9.80498 23.0557 9.89397 22.3973C9.98296 22.0382 10.4576 21.6791 11.3474 21.32Z" fill="white"/>
<defs>
<linearGradient id="paint0_linear_488_1057" x1="1.83876" y1="37.7379" x2="43.3319" y2="37.7379" gradientUnits="userSpaceOnUse">
<stop offset="0.0339999" stop-color="#7E97FF"/>
<stop offset="0.909" stop-color="#C980FF"/>
</linearGradient>
</defs>
</svg>
