<svg width="94" height="86" viewBox="0 0 94 86" fill="none" xmlns="http://www.w3.org/2000/svg">
<path d="M47.1559 0.800781C64.3273 1.45792 77.6416 8.8738 86.9305 23.3881C96.5146 38.3659 95.6067 60.6547 84.8003 74.604C83.9368 75.7182 82.7337 76.0294 81.7908 75.3055C80.7241 74.4833 80.7178 73.4897 81.394 72.3817C82.5591 70.4643 82.54 70.4548 80.5718 69.2928C80.0734 68.9976 79.5622 68.7182 79.0892 68.3849C78.086 67.6801 77.7432 66.7436 78.4099 65.6579C79.0702 64.5817 80.0892 64.423 81.1717 64.9563C82.0702 65.3976 82.9273 65.9278 83.7654 66.4738C84.4321 66.9055 84.8321 66.9055 85.2194 66.096C87.594 61.15 88.9622 55.9468 89.4257 50.4928C89.4956 49.6833 89.2638 49.3341 88.4003 49.3881C87.4543 49.4484 86.4987 49.4167 85.5464 49.3881C84.2098 49.3436 83.4321 48.5849 83.4733 47.2992C83.5146 46.0865 84.3432 45.423 85.5749 45.3786C86.4733 45.3468 87.375 45.3246 88.2702 45.3817C89.1242 45.4357 89.5241 45.2167 89.4448 44.2611C88.9972 38.8516 87.6194 33.7055 85.2543 28.8135C84.9146 28.1151 84.5718 28.004 83.9273 28.4357C83.2257 28.9024 82.4765 29.2992 81.7368 29.7024C80.3083 30.477 79.1813 30.3024 78.5496 29.2325C77.9051 28.1373 78.286 27.0547 79.6448 26.2198C80.4067 25.75 81.1876 25.3055 81.9781 24.8801C82.5718 24.5627 82.6638 24.2516 82.2575 23.6516C79.1337 19.0579 75.2606 15.2325 70.667 12.1055C69.9971 11.6484 69.7845 11.9246 69.4924 12.4579C69.013 13.3373 68.521 14.2071 67.9845 15.0516C67.2892 16.1468 66.3019 16.5214 65.1432 15.842C64.0543 15.204 63.8924 14.204 64.4448 13.1119C64.8003 12.4071 65.1591 11.6897 65.6321 11.0643C66.4162 10.0294 66.3146 9.4611 65.0384 8.89602C60.3654 6.83253 55.5305 5.46745 50.4257 5.0357C49.2829 4.94046 48.8892 5.27697 49.0035 6.39443C49.0765 7.12459 49.0352 7.87062 49.0003 8.60713C48.94 9.91824 48.3686 10.8611 46.9559 10.9754C45.7654 11.0706 44.94 10.0865 44.8448 8.51507C44.794 7.6738 44.7972 6.82618 44.8384 5.98808C44.8765 5.2103 44.5368 4.98173 43.8035 5.03253C38.3083 5.40078 33.1178 6.86427 28.1654 9.24205C27.4987 9.56268 27.521 9.90554 27.8702 10.4548C28.3527 11.2071 28.7845 11.9944 29.2067 12.7849C29.9591 14.1881 29.7622 15.3373 28.6225 15.8992C27.3241 16.5405 26.394 15.9976 25.721 14.8452C25.3749 14.2548 24.9464 13.6928 24.7051 13.0643C24.1654 11.6389 23.5241 11.8135 22.4384 12.6008C18.2924 15.6008 14.7337 19.15 11.7908 23.3341C11.1591 24.2325 11.2829 24.6516 12.2226 25.0928C13.0289 25.4738 13.7908 25.9627 14.5432 26.4516C15.5813 27.1278 15.8987 28.096 15.3083 29.1817C14.7051 30.2928 13.6765 30.4706 12.5845 29.9468C11.6353 29.4928 10.721 28.9532 9.83207 28.3881C9.21302 27.9976 8.91144 28.1786 8.62255 28.7722C6.2162 33.7024 4.81303 38.896 4.40668 44.3659C4.35272 45.1087 4.58129 45.4198 5.35907 45.3849C6.36224 45.3405 7.37176 45.3309 8.37176 45.3944C9.59716 45.4706 10.3813 46.169 10.3718 47.4008C10.3622 48.623 9.61304 49.3246 8.35907 49.3913C7.72732 49.4262 7.09239 49.4103 6.45747 49.4103C4.23524 49.4135 4.26065 49.4071 4.50827 51.5468C5.0797 56.496 6.33684 61.2484 8.47017 65.7722C8.94001 66.769 9.36541 67.0516 10.3178 66.3627C11.0416 65.8389 11.8289 65.3881 12.6289 64.9912C13.7813 64.4198 14.8257 64.5944 15.4829 65.7722C16.1083 66.896 15.6765 67.8135 14.6638 68.4706C13.8257 69.0166 12.9654 69.5436 12.0765 69.9976C11.2956 70.3976 11.2511 70.8262 11.7845 71.4579C12.0892 71.8198 12.3527 72.2198 12.5876 72.6293C13.1749 73.6452 13.0384 74.6135 12.0924 75.2833C11.1019 75.9881 10.0225 75.8833 9.27969 74.8928C8.30191 73.5881 7.39716 72.2198 6.57177 70.8135C-9.54569 43.3309 6.51144 7.87062 37.8511 1.71824C40.9146 1.10237 44.0162 0.870623 47.1559 0.800781Z" fill="#7733AA"/>
<path d="M46.9682 73.6928C53.4159 73.6928 59.8635 73.6896 66.3111 73.6928C68.6698 73.6928 69.2952 74.3087 69.3206 76.6928C69.3397 78.642 69.3301 80.5912 69.3238 82.5404C69.3143 85.296 68.7206 85.9023 65.9841 85.9055C54.4095 85.9119 42.8349 85.9087 31.2603 85.9087C29.8857 85.9087 28.5111 85.95 27.1397 85.896C25.292 85.8198 24.5746 85.1023 24.5397 83.242C24.492 80.9246 24.4857 78.6039 24.5428 76.2865C24.5905 74.3373 25.3111 73.6992 27.3111 73.696C33.8603 73.6896 40.4127 73.6928 46.9682 73.6928ZM46.9238 77.7595C41.6889 77.7595 36.4539 77.7595 31.219 77.7595C28.6063 77.7595 28.6794 77.7627 28.619 80.3563C28.5905 81.6103 29.0666 81.8357 30.1904 81.8198C34.5778 81.7627 38.9682 81.7976 43.3555 81.7976C50.019 81.7976 56.6794 81.7468 63.3428 81.8357C64.9143 81.8579 65.4571 81.3658 65.2032 79.8833C65.1778 79.7309 65.1778 79.5627 65.2032 79.4103C65.4254 78.1119 64.9174 77.7119 63.5809 77.7309C58.0286 77.8008 52.4762 77.7595 46.9238 77.7595Z" fill="#7733AA"/>
<path d="M47.4216 37.2913C48.5168 37.2595 49.9803 37.5675 51.2692 38.3103C52.2089 38.8532 52.9613 38.7516 53.9105 38.3897C60.4534 35.8818 67.0184 33.4278 73.5835 30.977C74.0661 30.796 74.7073 30.196 75.0978 30.9452C75.4184 31.5579 74.6375 31.8056 74.2787 32.1199C68.974 36.7897 63.6629 41.4468 58.3232 46.0786C57.5327 46.7643 57.0978 47.4627 56.974 48.5707C56.3772 53.9389 51.3962 57.9929 46.1454 57.5135C40.593 57.0056 36.466 52.2532 36.774 46.723C37.0724 41.4564 41.6756 37.2119 47.4216 37.2913ZM52.9835 47.3611C52.974 43.9802 50.3486 41.3833 46.9359 41.3802C43.4565 41.3738 40.8248 44.0214 40.8629 47.4913C40.8978 50.796 43.6597 53.4849 46.9867 53.4532C50.2978 53.4183 52.993 50.6818 52.9835 47.3611Z" fill="#7733AA"/>
</svg>
