<svg width="41" height="41" viewBox="0 0 41 41" fill="none" xmlns="http://www.w3.org/2000/svg">
<path d="M34.1663 14.2385C34.0648 33.1706 14.0518 37.1925 5.07338 32.4933C4.79202 32.3461 4.87355 31.9395 5.18593 31.8823C8.73641 31.2324 11.129 29.9391 12.2819 29.067C12.5087 28.8955 12.4023 28.557 12.1245 28.4962C10.1354 28.0609 7.92219 26.7604 7.0093 24.0867C6.92219 23.8315 7.1696 23.5992 7.43077 23.6661C8.6164 23.9699 9.41337 23.8811 9.86634 23.7126C10.0775 23.634 10.0576 23.3793 9.86591 23.2609C7.93516 22.0685 4.89029 19.5595 5.05026 17.1348C5.06581 16.8991 5.33283 16.7949 5.53203 16.9219C6.55085 17.5717 7.0298 17.7467 7.30823 17.7245C7.53281 17.7067 7.49447 17.3999 7.31235 17.2673C5.61121 16.0284 4.49219 13.2514 5.76683 9.53993C5.85341 9.28783 6.18568 9.24105 6.35535 9.44662C10.3475 14.2835 16.9179 15.1589 20.1228 14.9756C20.3256 14.964 20.4636 14.768 20.4311 14.5675C19.1229 6.50819 28.727 4.82334 32.2648 8.7411C32.3795 8.86802 32.5678 8.90306 32.7145 8.81507L35.7231 7.00985C36.0162 6.83399 36.3574 7.14989 36.2045 7.45562L35.2681 9.32839C35.1545 9.55556 35.3197 9.82285 35.5737 9.82285H36.5877C36.6783 9.82285 36.7686 9.85574 36.8248 9.92676C37.0871 10.2576 37.2161 11.0238 34.2688 13.9913C34.2049 14.0556 34.1668 14.1479 34.1663 14.2385Z" fill="white"/>
</svg>
