<svg width="101" height="89" viewBox="0 0 101 89" fill="none" xmlns="http://www.w3.org/2000/svg">
<path d="M27.5692 39.2263C34.2231 43.0898 40.8676 46.7882 47.3311 50.7787C49.639 52.2041 51.3025 52.293 53.6644 50.8231C60.1184 46.8104 66.7755 43.1311 73.5247 39.22C69.5819 36.9469 65.766 34.7501 61.9469 32.5501C61.4898 32.2866 61.0168 32.0422 60.5819 31.7469C59.3755 30.9247 58.9692 29.5438 59.5819 28.4549C60.22 27.3184 61.5311 26.9882 62.9088 27.6327C63.2898 27.8104 63.6549 28.0295 64.0231 28.239C67.5977 30.2898 71.166 32.3533 74.7469 34.3946C78.7184 36.6549 80.7819 39.9692 80.693 44.6231C80.6073 49.0104 80.6803 53.3977 80.6707 57.7882C80.6676 59.6993 79.6962 60.9088 78.2422 60.8676C76.8263 60.8263 75.9216 59.6771 75.9184 57.839C75.9057 53.6104 75.9152 49.3787 75.9152 45.1501C75.9152 44.6422 75.9152 44.1374 75.9152 43.3755C74.2073 44.3596 72.712 45.2136 71.2231 46.0771C65.512 49.3819 59.8104 52.7057 54.0803 55.9723C53.239 56.4517 52.9184 56.9628 52.9216 57.9438C52.9628 65.7692 52.9438 73.5914 52.9469 81.4168C52.9469 83.1152 52.9628 83.1215 54.4295 82.2771C58.0485 80.1977 61.6644 78.1152 65.2835 76.0358C66.0136 75.6168 66.7406 75.1184 67.6485 75.366C68.6485 75.6358 69.3501 76.2803 69.5215 77.3057C69.7342 78.5787 69.0104 79.3946 67.9692 79.9914C63.7533 82.4104 59.5469 84.8485 55.3152 87.239C54.6358 87.6231 53.8612 87.858 53.1088 88.093C50.5946 88.8834 48.1343 88.5565 45.8993 87.2993C39.1279 83.4961 32.3882 79.639 25.6993 75.693C22.0993 73.5692 20.3406 70.3247 20.3755 66.0739C20.4358 58.8327 20.4263 51.5882 20.3787 44.3438C20.3501 40.0898 22.1628 36.8961 25.7501 34.7501C29.785 32.3374 33.8898 30.0422 37.9787 27.7152C39.3438 26.9374 40.7279 27.2422 41.4485 28.4072C42.1438 29.5311 41.766 30.9787 40.4041 31.7819C36.5819 34.0358 32.7216 36.2295 28.8771 38.4454C28.4676 38.6803 28.0644 38.9279 27.5692 39.2263ZM25.239 43.6136C25.2073 43.7755 25.1565 43.9215 25.1565 44.0644C25.1533 51.5692 25.1501 59.0739 25.1565 66.5755C25.1596 68.912 26.293 70.566 28.2803 71.7088C34.4168 75.2327 40.5438 78.7723 46.6803 82.2993C48.1565 83.1469 48.1723 83.1374 48.1755 81.4676C48.1787 73.6454 48.1596 65.8263 48.2009 58.0041C48.2073 57.0485 47.9565 56.5152 47.093 56.0199C40.2676 52.1184 33.4803 48.1533 26.6708 44.2231C26.2358 43.9755 25.8422 43.5692 25.239 43.6136Z" fill="#7733AA"/>
<path d="M100.46 82.2119C100.511 84.65 98.5807 85.7072 96.7235 84.6881C94.3648 83.3961 92.0569 82.0119 89.7267 80.6659C81.4156 75.8596 73.1045 71.0564 64.7934 66.2469C62.587 64.9707 61.9584 63.7262 62.7743 62.304C63.6156 60.8437 64.8981 60.7802 67.1712 62.0945C77.6283 68.1453 88.0823 74.1992 98.5426 80.2405C99.5362 80.8151 100.476 81.3865 100.46 82.2119Z" fill="#7733AA"/>
<path d="M48.1083 20.2472C48.1083 14.9075 48.1051 9.57103 48.1147 4.23134C48.1147 3.5996 48.1242 2.95516 48.2575 2.34246C48.502 1.23452 49.2829 0.621829 50.3877 0.539289C51.594 0.4504 52.4194 1.10436 52.775 2.21865C52.9623 2.80595 52.9464 3.46944 52.9464 4.10118C52.9559 14.9361 52.9559 25.771 52.9496 36.6059C52.9496 37.1329 52.9528 37.6726 52.8416 38.1805C52.5782 39.4123 51.7877 40.1583 50.5178 40.1361C49.2702 40.1139 48.4353 39.4186 48.2194 38.152C48.1147 37.5329 48.1147 36.8917 48.1147 36.2599C48.102 30.9234 48.1051 25.5869 48.1083 20.2472Z" fill="#7733AA"/>
<path d="M14.0317 32.7697C14.0158 34.5158 12.2856 35.7443 10.7872 34.9539C7.66341 33.3062 4.60308 31.5253 1.58403 29.6872C0.450702 28.9983 0.253878 27.465 0.990386 26.4681C1.77769 25.4015 2.84753 25.0396 4.05071 25.7094C6.95547 27.3285 9.83165 28.9951 12.711 30.6586C13.5428 31.1412 13.984 31.8935 14.0317 32.7697Z" fill="#7733AA"/>
</svg>
