<svg width="99" height="93" viewBox="0 0 99 93" fill="none" xmlns="http://www.w3.org/2000/svg">
<path d="M11.0929 15.5384C11.0929 20.4368 11.0866 25.2209 11.0993 30.0051C11.1025 30.9289 11.0294 31.8082 10.258 32.4432C9.48976 33.0717 8.59135 33.1416 7.72468 32.7733C6.68341 32.332 6.34056 31.4241 6.34374 30.3289C6.35644 26.4844 6.35009 22.6368 6.35009 18.7892C6.35009 16.367 6.43261 13.9384 6.32467 11.5194C6.22943 9.43046 7.21674 8.14475 8.95008 7.24633C11.9818 5.6749 15.2834 4.99237 18.5945 4.40506C29.8136 2.42094 41.1564 1.68761 52.5151 1.18284C57.2993 0.970146 62.0866 0.852687 66.8676 0.643163C74.1057 0.325703 79.6326 4.18919 81.1374 10.7067C81.5056 12.3035 81.5438 13.9448 81.4803 15.5765C81.4517 16.3225 81.7057 16.6336 82.4612 16.8749C87.6009 18.5067 90.1564 22.0717 90.1596 27.4654C90.1596 28.3098 90.2072 29.1543 90.1437 29.9924C90.0453 31.3193 89.0072 32.294 87.7596 32.2463C86.3913 32.1924 85.6199 31.3606 85.458 30.0781C85.3279 29.04 85.4326 27.9733 85.4136 26.9193C85.3437 23.4749 83.0802 21.1511 79.6358 21.1606C71.366 21.186 63.1025 21.0273 54.8422 20.6876C43.3247 20.2146 31.8231 19.5098 20.4199 17.6717C17.3088 17.1765 14.2453 16.4654 11.0929 15.5384Z" fill="#7733AA"/>
<path d="M24.1504 44.1086C18.4329 44.1689 12.4298 44.6959 6.64562 46.7403C5.38531 47.1848 4.28058 47.7403 4.29645 49.3086C4.31232 50.7975 5.38849 51.353 6.57579 51.7816C7.11865 51.9784 7.65517 52.207 8.21072 52.3594C9.70913 52.7657 10.3536 53.7625 10.3377 55.2705C10.325 56.534 10.3885 57.8006 10.3187 59.0641C10.2139 61.0102 8.77581 61.9911 6.95041 61.3816C6.05517 61.0832 5.17898 60.7118 4.32819 60.3054C1.87739 59.1371 0.480559 57.3848 0.747226 54.4546C0.937702 52.3657 0.883743 50.2387 0.756759 48.1371C0.620251 45.8832 1.6774 44.4483 3.50598 43.3975C6.42661 41.7213 9.62026 40.8768 12.906 40.3276C22.2584 38.7721 31.5568 38.8864 40.7536 41.3943C42.7917 41.9498 44.7345 42.7435 46.4615 44.007C47.6964 44.9086 48.3314 46.0737 48.3028 47.6387C48.2584 50.1657 48.2234 52.699 48.3123 55.2229C48.379 57.1784 47.5663 58.534 45.9631 59.5467C42.9599 61.4387 39.5917 62.2578 36.1726 62.88C31.2329 63.7816 26.2393 64.0038 21.2266 63.8102C18.9631 63.7213 18.2203 62.9562 18.1885 60.7054C18.1726 59.6514 18.179 58.5975 18.1885 57.5435C18.2044 55.0292 19.0234 54.2419 21.5345 54.3181C27.8234 54.5086 34.0552 54.0959 40.1631 52.4705C41.1282 52.2133 42.0679 51.8705 43.0139 51.5498C44.1314 51.1721 44.7821 50.3879 44.7917 49.207C44.8044 48.0038 44.0837 47.2737 42.998 46.8737C39.7726 45.6832 36.4203 45.0324 33.0266 44.5943C30.1949 44.226 27.3536 44.1244 24.1504 44.1086Z" fill="#7733AA"/>
<path d="M71.7918 82.5118C67.5283 82.5118 63.2648 82.5277 59.0014 82.5023C57.3061 82.4927 56.1855 81.5308 56.1569 80.1816C56.1252 78.7054 57.2236 77.7467 59.0299 77.7721C65.7156 77.861 72.4045 78.0039 79.0903 78.0705C83.2522 78.1118 85.4077 75.9118 85.414 71.7435C85.4204 68.5816 85.3347 65.4166 85.4521 62.261C85.5029 60.8769 85.0395 60.5943 83.7728 60.6578C82.0966 60.7435 80.376 60.8007 78.7283 60.5404C72.9855 59.6356 69.2236 54.842 69.6172 49.1308C69.9887 43.7499 74.7061 39.4515 80.5633 39.3308C85.4617 39.2293 90.3633 39.2864 95.2648 39.3213C97.2299 39.334 98.0553 40.1975 98.0617 42.1404C98.0776 47.4102 98.0807 52.68 98.0585 57.9499C98.0522 59.8134 97.2045 60.6451 95.3537 60.6832C94.141 60.7086 92.9252 60.7594 91.7188 60.6674C90.5347 60.5753 90.0839 60.8737 90.1252 62.1816C90.2299 65.5499 90.1696 68.9245 90.1569 72.2991C90.1315 78.334 85.6998 82.7912 79.6903 82.8261C77.0553 82.842 74.4204 82.8293 71.7855 82.8293C71.7887 82.7213 71.7887 82.6166 71.7918 82.5118ZM86.2077 44.1118C86.2077 44.1213 86.2077 44.1308 86.2077 44.1404C84.1569 44.1404 82.0998 44.0578 80.0522 44.1594C76.7284 44.3245 74.2934 46.9308 74.3537 50.1181C74.4109 53.2547 77.0045 55.8705 80.2553 55.9245C84.2521 55.988 88.2521 55.9245 92.2521 55.9594C93.0521 55.9658 93.3537 55.7721 93.341 54.9118C93.2934 51.7023 93.2776 48.4927 93.3474 45.2832C93.3696 44.2293 92.9379 44.0737 92.049 44.0959C90.1029 44.1467 88.1569 44.1118 86.2077 44.1118Z" fill="#7733AA"/>
<path d="M24.906 92.2685C23.5377 92.2685 22.1663 92.3193 20.798 92.2558C19.1282 92.1796 18.2901 91.3542 18.198 89.6908C18.1282 88.4304 18.1695 87.1638 18.179 85.9003C18.2012 83.5161 19.052 82.7034 21.4742 82.7828C27.3377 82.9796 33.1504 82.6082 38.8774 81.2622C40.8266 80.805 42.7123 80.1701 44.5441 79.3542C46.6615 78.4114 48.1822 79.3987 48.2837 81.7447C48.4806 86.3098 47.7472 87.532 43.4806 89.2812C37.5314 91.7193 31.2393 92.1574 24.906 92.2685Z" fill="#7733AA"/>
<path d="M24.9117 78.0358C23.5434 78.0358 22.172 78.0834 20.8037 78.0231C19.1307 77.9469 18.2894 77.1247 18.2005 75.4644C18.1275 74.1501 18.1625 72.8326 18.1815 71.5152C18.2133 69.3279 19.0894 68.4834 21.3117 68.5533C26.7466 68.7247 32.1497 68.458 37.4926 67.3691C39.9212 66.8739 42.2799 66.1723 44.5371 65.1279C46.6323 64.1596 48.1783 65.166 48.2831 67.5056C48.4863 72.0707 47.7498 73.2961 43.4863 75.0485C37.5371 77.4866 31.2418 77.9215 24.9117 78.0358Z" fill="#7733AA"/>
<path d="M10.3333 71.2686C10.7365 75.7987 8.73967 76.8305 4.75872 74.7575C0.33967 72.4559 0.568233 71.2051 0.901567 66.7035C1.02855 65.0019 2.69206 64.2844 4.3746 65.0146C5.6254 65.5575 6.86349 66.1162 8.17777 66.4876C9.63809 66.9003 10.3333 67.8813 10.3333 69.3829C10.3333 70.0114 10.3333 70.64 10.3333 71.2686Z" fill="#7733AA"/>
<path d="M10.3245 85.453C10.7341 89.9419 8.78802 91.072 4.83247 89.0308C0.264215 86.672 0.629306 85.4181 0.876925 81.0149C0.968989 79.3705 2.59754 78.5006 4.1531 79.1578C5.64834 79.7927 7.15629 80.3832 8.68962 80.9197C9.74994 81.2911 10.2325 82.1514 10.3118 83.2213C10.3722 84.0022 10.3245 84.7927 10.3245 85.453Z" fill="#7733AA"/>
</svg>
