<svg width="44" height="44" viewBox="0 0 44 44" fill="none" xmlns="http://www.w3.org/2000/svg">
<circle cx="21.8996" cy="21.6332" r="21.6332" fill="url(#paint0_linear_488_1048)"/>
<path d="M30.4696 17.7058C30.406 29.5772 17.8568 32.0991 12.2269 29.1525C12.0505 29.0601 12.1016 28.8052 12.2975 28.7693C14.5238 28.3618 16.0241 27.5509 16.747 27.004C16.8892 26.8964 16.8225 26.6842 16.6483 26.6461C15.401 26.3731 14.0133 25.5576 13.4408 23.8811C13.3862 23.7211 13.5413 23.5754 13.7051 23.6174C14.4486 23.8078 14.9483 23.7522 15.2323 23.6465C15.3647 23.5972 15.3523 23.4375 15.2321 23.3633C14.0214 22.6156 12.1121 21.0423 12.2124 19.5219C12.2222 19.3741 12.3896 19.3088 12.5145 19.3884C13.1534 19.7959 13.4537 19.9056 13.6283 19.8917C13.7691 19.8805 13.7451 19.6881 13.6309 19.605C12.5642 18.8282 11.8625 17.0868 12.6617 14.7596C12.716 14.6015 12.9244 14.5721 13.0308 14.701C15.534 17.734 19.654 18.2829 21.6636 18.168C21.7908 18.1607 21.8774 18.0378 21.857 17.9121C21.0366 12.8585 27.0589 11.802 29.2773 14.2587C29.3492 14.3382 29.4673 14.3602 29.5592 14.305L31.4458 13.1731C31.6296 13.0628 31.8435 13.2609 31.7477 13.4526L31.1605 14.6269C31.0893 14.7694 31.1929 14.937 31.3521 14.937H31.9879C32.0448 14.937 32.1014 14.9576 32.1366 15.0021C32.3011 15.2096 32.382 15.69 30.5339 17.5508C30.4938 17.5911 30.4699 17.649 30.4696 17.7058Z" fill="white"/>
<defs>
<linearGradient id="paint0_linear_488_1048" x1="2.03957" y1="37.7379" x2="43.5327" y2="37.7379" gradientUnits="userSpaceOnUse">
<stop offset="0.0339999" stop-color="#7E97FF"/>
<stop offset="0.909" stop-color="#C980FF"/>
</linearGradient>
</defs>
</svg>
