<svg width="44" height="44" viewBox="0 0 44 44" fill="none" xmlns="http://www.w3.org/2000/svg">
<circle cx="22.1332" cy="21.6332" r="21.6332" fill="url(#paint0_linear_1637_4948)"/>
<path d="M36.3725 14.3C36.0275 13.0012 35.0113 11.9775 33.72 11.63C31.3813 11 22 11 22 11C22 11 12.6188 11 10.2787 11.63C8.98875 11.9775 7.9725 13 7.6275 14.3C7 16.655 7 21.5675 7 21.5675C7 21.5675 7 26.48 7.6275 28.835C7.9725 30.1338 8.98875 31.1575 10.28 31.505C12.6188 32.135 22 32.135 22 32.135C22 32.135 31.3813 32.135 33.7213 31.505C35.0113 31.1575 36.0275 30.135 36.3738 28.835C37 26.48 37 21.5675 37 21.5675C37 21.5675 37 16.655 36.3725 14.3ZM18.9325 26.0288V17.1062L26.7725 21.5675L18.9325 26.0288Z" fill="white"/>
<defs>
<linearGradient id="paint0_linear_1637_4948" x1="2.27321" y1="37.7379" x2="43.7664" y2="37.7379" gradientUnits="userSpaceOnUse">
<stop offset="0.0339999" stop-color="#7E97FF"/>
<stop offset="0.909" stop-color="#C980FF"/>
</linearGradient>
</defs>
</svg>
